%TF.GenerationSoftware,KiCad,Pcbnew,10.0.5*%
%TF.CreationDate,2026-08-24T17:12:02+08:00*%
%TF.ProjectId,UWB_Positioning_Terminal,5557425f-506f-4736-9974-696f6e696e67,A*%
%TF.SameCoordinates,Original*%
%TF.FileFunction,Soldermask,Bot*%
%TF.FilePolarity,Negative*%
%FSLAX46Y46*%
G04 Gerber Fmt 4.6, Leading zero omitted, Abs format (unit mm)*
G04 Created by KiCad (PCBNEW 10.0.5) date 2026-08-24 17:12:02*
%MOMM*%
%LPD*%
G01*
G04 APERTURE LIST*
G04 Aperture macros list*
%AMRoundRect*
0 Rectangle with rounded corners*
0 $1 Rounding radius*
0 $2 $3 $4 $5 $6 $7 $8 $9 X,Y pos of 4 corners*
0 Add a 4 corners polygon primitive as box body*
4,1,4,$2,$3,$4,$5,$6,$7,$8,$9,$2,$3,0*
0 Add four circle primitives for the rounded corners*
1,1,$1+$1,$2,$3*
1,1,$1+$1,$4,$5*
1,1,$1+$1,$6,$7*
1,1,$1+$1,$8,$9*
0 Add four rect primitives between the rounded corners*
20,1,$1+$1,$2,$3,$4,$5,0*
20,1,$1+$1,$4,$5,$6,$7,0*
20,1,$1+$1,$6,$7,$8,$9,0*
20,1,$1+$1,$8,$9,$2,$3,0*%
G04 Aperture macros list end*
%ADD10R,1.700000X1.700000*%
%ADD11C,1.800000*%
%ADD12C,1.700000*%
%ADD13RoundRect,0.250000X-0.350000X-0.625000X0.350000X-0.625000X0.350000X0.625000X-0.350000X0.625000X0*%
%ADD14O,1.200000X1.750000*%
%ADD15C,2.100000*%
%ADD16O,1.600000X3.000000*%
%ADD17C,2.000000*%
%ADD18C,0.800000*%
%ADD19C,6.400000*%
%ADD20R,1.524000X1.524000*%
%ADD21C,1.524000*%
%ADD22C,0.600000*%
%ADD23C,2.200000*%
%ADD24C,0.650000*%
%ADD25O,1.000000X2.100000*%
%ADD26O,1.000000X1.800000*%
%ADD27C,3.300000*%
%ADD28R,1.600000X1.600000*%
%ADD29C,1.600000*%
%ADD30C,2.500000*%
%ADD31R,1.000000X1.000000*%
%ADD32C,1.000000*%
G04 APERTURE END LIST*
D10*
%TO.C,TP15*%
X173482000Y-145288000D03*
%TD*%
D11*
%TO.C,SW4*%
X254350000Y-114250000D03*
X260850000Y-114250000D03*
X254350000Y-118750000D03*
X260850000Y-118750000D03*
%TD*%
D10*
%TO.C,TP1*%
X182200000Y-195800000D03*
%TD*%
D11*
%TO.C,SW7*%
X285750000Y-127000000D03*
X292250000Y-127000000D03*
X285750000Y-131500000D03*
X292250000Y-131500000D03*
%TD*%
D10*
%TO.C,J8*%
X236500000Y-147800000D03*
D12*
X236500000Y-145260000D03*
%TD*%
D13*
%TO.C,LS2*%
X166450000Y-80550000D03*
D14*
X168450000Y-80550000D03*
%TD*%
D15*
%TO.C,J2*%
X123500000Y-197250000D03*
D16*
X126750000Y-191030000D03*
X118250000Y-191030000D03*
X123550000Y-191030000D03*
X117350000Y-198270000D03*
X127150000Y-198270000D03*
%TD*%
D17*
%TO.C,BT1*%
X143150000Y-136000000D03*
X122850000Y-136000000D03*
%TD*%
D10*
%TO.C,J7*%
X167925000Y-114554000D03*
D12*
X170465000Y-114554000D03*
X167925000Y-117094000D03*
X170465000Y-117094000D03*
X167925000Y-119634000D03*
X170465000Y-119634000D03*
X167925000Y-122174000D03*
X170465000Y-122174000D03*
X167925000Y-124714000D03*
X170465000Y-124714000D03*
%TD*%
D18*
%TO.C,H1*%
X104350000Y-196250000D03*
X105052944Y-194552944D03*
X105052944Y-197947056D03*
X106750000Y-193850000D03*
D19*
X106750000Y-196250000D03*
D18*
X106750000Y-198650000D03*
X108447056Y-194552944D03*
X108447056Y-197947056D03*
X109150000Y-196250000D03*
%TD*%
%TO.C,H2*%
X291402944Y-67000000D03*
X292105888Y-65302944D03*
X292105888Y-68697056D03*
X293802944Y-64600000D03*
D19*
X293802944Y-67000000D03*
D18*
X293802944Y-69400000D03*
X295500000Y-65302944D03*
X295500000Y-68697056D03*
X296202944Y-67000000D03*
%TD*%
D20*
%TO.C,SW1*%
X128864000Y-187562000D03*
D21*
X126864000Y-187562000D03*
X124864000Y-187562000D03*
X128864000Y-183062000D03*
X126864000Y-183062000D03*
X124864000Y-183062000D03*
%TD*%
D10*
%TO.C,J9*%
X118190000Y-119140000D03*
D12*
X118190000Y-116600000D03*
X120730000Y-119140000D03*
X120730000Y-116600000D03*
X123270000Y-119140000D03*
X123270000Y-116600000D03*
X125810000Y-119140000D03*
X125810000Y-116600000D03*
%TD*%
D11*
%TO.C,SW3*%
X270204000Y-114500000D03*
X276704000Y-114500000D03*
X270204000Y-119000000D03*
X276704000Y-119000000D03*
%TD*%
D22*
%TO.C,U1*%
X179500000Y-118950000D03*
X179500000Y-135550000D03*
D23*
X179500000Y-139750000D03*
X222500000Y-114750000D03*
D22*
X222500000Y-118950000D03*
X222500000Y-140550000D03*
%TD*%
D13*
%TO.C,LS1*%
X238800000Y-80550000D03*
D14*
X240800000Y-80550000D03*
%TD*%
D10*
%TO.C,TP5*%
X128000000Y-155000000D03*
%TD*%
%TO.C,TP3*%
X202000000Y-65000000D03*
%TD*%
D11*
%TO.C,SW5*%
X270750000Y-127000000D03*
X277250000Y-127000000D03*
X270750000Y-131500000D03*
X277250000Y-131500000D03*
%TD*%
%TO.C,SW2*%
X162950000Y-134850000D03*
X162950000Y-128350000D03*
X167450000Y-134850000D03*
X167450000Y-128350000D03*
%TD*%
D24*
%TO.C,J1*%
X140860000Y-194645000D03*
X146640000Y-194645000D03*
D25*
X139430000Y-194145000D03*
D26*
X139430000Y-198325000D03*
D25*
X148070000Y-194145000D03*
D26*
X148070000Y-198325000D03*
%TD*%
D10*
%TO.C,TP16*%
X174400000Y-195800000D03*
%TD*%
D18*
%TO.C,H4*%
X291797056Y-196500000D03*
X292500000Y-194802944D03*
X292500000Y-198197056D03*
X294197056Y-194100000D03*
D19*
X294197056Y-196500000D03*
D18*
X294197056Y-198900000D03*
X295894112Y-194802944D03*
X295894112Y-198197056D03*
X296597056Y-196500000D03*
%TD*%
D27*
%TO.C,J5*%
X265530000Y-190360000D03*
X276970000Y-190360000D03*
D28*
X266800000Y-184010000D03*
D29*
X268070000Y-181470000D03*
X269340000Y-184010000D03*
X270610000Y-181470000D03*
X271880000Y-184010000D03*
X273150000Y-181470000D03*
X274420000Y-184010000D03*
X275690000Y-181470000D03*
D11*
X264620000Y-195250000D03*
X267160000Y-195250000D03*
X275340000Y-195250000D03*
X277880000Y-195250000D03*
D30*
X263510000Y-187310000D03*
X278990000Y-187310000D03*
%TD*%
D11*
%TO.C,SW6*%
X286150000Y-114250000D03*
X292650000Y-114250000D03*
X286150000Y-118750000D03*
X292650000Y-118750000D03*
%TD*%
D18*
%TO.C,H3*%
X103600000Y-67000000D03*
X104302944Y-65302944D03*
X104302944Y-68697056D03*
X106000000Y-64600000D03*
D19*
X106000000Y-67000000D03*
D18*
X106000000Y-69400000D03*
X107697056Y-65302944D03*
X107697056Y-68697056D03*
X108400000Y-67000000D03*
%TD*%
D31*
%TO.C,J6*%
X228000000Y-134800000D03*
D32*
X228000000Y-133530000D03*
X229270000Y-134800000D03*
X229270000Y-133530000D03*
X230540000Y-134800000D03*
X230540000Y-133530000D03*
X231810000Y-134800000D03*
X231810000Y-133530000D03*
X233080000Y-134800000D03*
X233080000Y-133530000D03*
%TD*%
D24*
%TO.C,J4*%
X242860000Y-194645000D03*
X248640000Y-194645000D03*
D25*
X241430000Y-194145000D03*
D26*
X241430000Y-198325000D03*
D25*
X250070000Y-194145000D03*
D26*
X250070000Y-198325000D03*
%TD*%
M02*
