M48
; DRILL file KiCad 10.0.5 date 2026-08-24T17:12:11
; FORMAT={-:-/ absolute / metric / decimal}
; #@! TF.CreationDate,2026-08-24T17:12:11+08:00
; #@! TF.GenerationSoftware,Kicad,Pcbnew,10.0.5
; #@! TF.FileFunction,Plated,1,4,PTH
FMAT,2
METRIC
; #@! TA.AperFunction,Plated,PTH,ViaDrill
T1C0.200
; #@! TA.AperFunction,Plated,PTH,ComponentDrill
T2C0.200
; #@! TA.AperFunction,Plated,PTH,ViaDrill
T3C0.300
; #@! TA.AperFunction,Plated,PTH,ComponentDrill
T4C0.500
; #@! TA.AperFunction,Plated,PTH,ComponentDrill
T5C0.600
; #@! TA.AperFunction,Plated,PTH,ComponentDrill
T6C0.650
; #@! TA.AperFunction,Plated,PTH,ComponentDrill
T7C0.750
; #@! TA.AperFunction,Plated,PTH,ComponentDrill
T8C1.000
; #@! TA.AperFunction,Plated,PTH,ComponentDrill
T9C1.000
; #@! TA.AperFunction,Plated,PTH,ComponentDrill
T10C1.100
; #@! TA.AperFunction,Plated,PTH,ComponentDrill
T11C1.200
; #@! TA.AperFunction,Plated,PTH,ComponentDrill
T12C1.400
; #@! TA.AperFunction,Plated,PTH,ComponentDrill
T13C1.800
; #@! TA.AperFunction,Plated,PTH,ComponentDrill
T14C2.100
; #@! TA.AperFunction,Plated,PTH,ComponentDrill
T15C3.200
; #@! TA.AperFunction,Plated,PTH,ComponentDrill
T16C3.300
%
G90
G05
T1
X209.8Y-98.4
T2
X135.075Y-115.445
X135.075Y-116.175
X135.805Y-115.445
X135.805Y-116.175
X145.885Y-115.27
X145.885Y-116.0
X146.615Y-115.27
X146.615Y-116.0
X150.734Y-159.874
X150.734Y-160.974
X150.734Y-162.074
X151.834Y-159.874
X151.834Y-160.974
X151.834Y-162.074
X152.934Y-159.874
X152.934Y-160.974
X152.934Y-162.074
X269.085Y-160.066
X269.085Y-161.141
X269.085Y-162.216
X270.16Y-160.066
X270.16Y-161.141
X270.16Y-162.216
X271.235Y-160.066
X271.235Y-161.141
X271.235Y-162.216
T3
X105.0Y-158.8
X105.0Y-159.6
X105.0Y-161.0
X105.0Y-161.8
X105.2Y-153.6
X105.2Y-154.4
X105.2Y-155.2
X105.2Y-156.0
X105.2Y-157.0
X105.2Y-157.8
X106.2Y-158.8
X106.2Y-159.6
X106.2Y-161.0
X106.2Y-161.8
X106.4Y-153.6
X106.4Y-154.4
X106.4Y-155.2
X106.4Y-156.0
X106.4Y-157.0
X106.4Y-157.8
X107.4Y-158.8
X107.4Y-159.6
X107.4Y-161.0
X107.4Y-161.8
X107.6Y-153.6
X107.6Y-154.4
X107.6Y-155.2
X107.6Y-156.0
X107.6Y-157.0
X107.6Y-157.8
X108.6Y-158.8
X108.6Y-159.6
X108.6Y-161.0
X108.6Y-161.8
X108.8Y-153.6
X108.8Y-154.4
X108.8Y-155.2
X108.8Y-156.0
X108.8Y-157.0
X108.8Y-157.8
X109.6Y-158.8
X109.6Y-159.6
X109.6Y-161.0
X109.6Y-161.8
X109.8Y-153.6
X109.8Y-154.4
X109.8Y-155.2
X109.8Y-156.0
X109.8Y-157.0
X109.8Y-157.8
X110.8Y-158.8
X110.8Y-159.6
X110.8Y-161.0
X110.8Y-161.8
X111.0Y-153.6
X111.0Y-154.4
X111.0Y-155.2
X111.0Y-156.0
X111.0Y-157.0
X111.0Y-157.8
X111.8Y-158.8
X111.8Y-159.6
X111.8Y-161.0
X111.8Y-161.8
X112.0Y-153.6
X112.0Y-154.4
X112.0Y-155.2
X112.0Y-156.0
X112.0Y-157.0
X112.0Y-157.8
X112.8Y-161.0
X113.0Y-153.6
X113.0Y-154.4
X113.0Y-155.2
X113.0Y-156.0
X113.2Y-157.0
X113.2Y-157.8
X113.2Y-158.8
X113.2Y-159.6
X113.25Y-168.0
X114.2Y-153.6
X114.2Y-154.4
X114.2Y-155.2
X114.2Y-156.0
X114.4Y-157.0
X114.4Y-157.8
X114.4Y-158.6
X114.4Y-159.6
X115.4Y-153.6
X115.4Y-154.4
X115.4Y-155.2
X115.4Y-156.0
X115.6Y-157.0
X115.6Y-157.8
X115.6Y-158.6
X115.6Y-159.6
X116.0Y-160.4
X116.5Y-169.0
X116.6Y-153.6
X116.6Y-154.4
X116.6Y-155.2
X116.6Y-156.0
X116.6Y-160.8
X116.75Y-169.75
X116.8Y-157.0
X116.8Y-157.8
X116.8Y-158.6
X116.8Y-159.6
X117.6Y-153.6
X117.6Y-154.4
X117.6Y-155.2
X117.6Y-156.0
X117.8Y-157.0
X117.8Y-157.8
X117.8Y-158.6
X117.8Y-159.6
X117.8Y-160.4
X118.2Y-161.0
X118.6Y-161.8
X118.8Y-153.6
X118.8Y-154.4
X118.8Y-155.2
X118.8Y-156.0
X119.0Y-157.0
X119.0Y-157.8
X119.0Y-158.6
X119.0Y-159.6
X119.4Y-160.4
X119.415Y-166.226
X119.5Y-112.0
X119.6Y-161.2
X119.8Y-153.6
X119.8Y-154.4
X119.8Y-155.2
X119.8Y-156.0
X120.0Y-157.0
X120.0Y-157.8
X120.0Y-158.6
X120.0Y-159.6
X120.4Y-154.0
X120.4Y-160.4
X120.75Y-161.75
X121.2Y-160.8
X121.2Y-170.8
X121.5Y-151.5
X121.5Y-152.25
X121.75Y-161.75
X122.5Y-151.5
X122.5Y-152.25
X122.6Y-160.8
X122.6Y-161.6
X123.0Y-158.2
X123.2Y-170.8
X123.25Y-113.5
X123.4Y-161.8
X123.5Y-151.5
X123.5Y-152.25
X124.25Y-168.75
X124.5Y-151.5
X124.5Y-152.25
X124.5Y-153.0
X125.0Y-165.5
X125.0Y-170.4
X125.5Y-151.5
X125.5Y-152.25
X125.5Y-153.0
X126.5Y-151.5
X126.5Y-152.25
X126.5Y-153.0
X126.6Y-165.4
X126.6Y-166.6
X127.5Y-151.5
X127.5Y-152.25
X127.5Y-153.0
X128.5Y-151.5
X128.5Y-152.25
X128.5Y-153.0
X132.8Y-116.4
X134.8Y-113.2
X134.8Y-156.6
X135.25Y-195.5
X135.445Y-118.134
X137.6Y-114.4
X137.75Y-117.25
X138.8Y-114.4
X139.25Y-181.25
X139.8Y-114.4
X139.8Y-168.0
X140.2Y-156.4
X140.25Y-181.25
X141.0Y-114.4
X141.25Y-181.25
X141.25Y-182.25
X141.25Y-183.25
X141.4Y-190.4
X142.0Y-117.4
X142.25Y-181.25
X142.25Y-182.25
X142.25Y-183.25
X142.75Y-118.75
X143.25Y-122.5
X143.25Y-181.25
X143.25Y-182.25
X143.25Y-183.25
X144.0Y-158.25
X144.0Y-159.75
X144.25Y-118.75
X144.25Y-181.25
X144.25Y-182.25
X144.25Y-183.25
X144.4Y-162.0
X144.4Y-163.4
X144.853Y-120.0
X145.25Y-181.25
X145.25Y-182.25
X145.25Y-183.25
X145.375Y-121.625
X145.69Y-156.225
X145.875Y-123.625
X145.895Y-112.973
X146.25Y-118.0
X146.25Y-181.25
X146.25Y-182.25
X146.25Y-183.25
X146.75Y-169.25
X146.75Y-170.0
X146.75Y-170.75
X146.75Y-172.0
X147.0Y-192.25
X147.25Y-181.25
X147.25Y-182.25
X147.25Y-183.25
X147.75Y-169.25
X147.75Y-170.0
X147.75Y-172.0
X148.114Y-151.636
X148.25Y-171.0
X148.25Y-181.25
X148.25Y-182.25
X148.25Y-183.25
X148.6Y-114.2
X148.75Y-172.0
X148.912Y-120.0
X149.0Y-136.137
X149.25Y-169.5
X149.25Y-170.25
X149.25Y-171.0
X149.75Y-172.0
X149.8Y-114.2
X150.25Y-118.5
X150.75Y-172.0
X150.8Y-114.2
X151.65Y-185.25
X151.75Y-172.0
X152.0Y-114.2
X152.75Y-117.75
X154.604Y-157.289
X154.62Y-158.75
X154.701Y-160.608
X154.748Y-161.829
X154.8Y-163.837
X155.0Y-152.0
X155.361Y-156.658
X156.0Y-158.75
X156.316Y-160.566
X156.979Y-161.59
X157.4Y-191.9
X158.6Y-117.6
X158.864Y-158.287
X158.864Y-160.291
X159.0Y-162.25
X159.068Y-163.068
X159.15Y-181.15
X159.75Y-174.8
X160.2Y-124.0
X160.4Y-150.8
X161.2Y-119.6
X161.2Y-191.8
X161.2Y-192.8
X161.2Y-193.8
X161.2Y-194.8
X162.2Y-191.8
X162.2Y-192.8
X162.2Y-193.8
X162.2Y-194.8
X162.25Y-148.5
X163.109Y-156.109
X163.37Y-158.5
X163.4Y-119.6
X164.15Y-180.9
X164.25Y-139.75
X164.25Y-160.5
X164.5Y-142.75
X166.0Y-116.2
X166.0Y-144.0
X167.9Y-185.65
X168.4Y-180.9
X169.75Y-146.0
X169.8Y-134.4
X169.9Y-196.0
X170.2Y-167.6
X175.5Y-120.3
X176.3Y-120.3
X176.5Y-168.75
X176.5Y-171.0
X177.2Y-189.1
X177.2Y-190.0
X177.6Y-132.8
X177.7Y-120.3
X177.8Y-129.4
X178.0Y-125.0
X178.0Y-165.0
X178.0Y-174.5
X178.2Y-189.1
X178.2Y-190.0
X179.1Y-178.2
X179.2Y-189.1
X179.2Y-190.0
X180.4Y-192.4
X181.4Y-120.0
X181.4Y-125.0
X181.638Y-130.5
X182.2Y-163.0
X182.4Y-155.0
X183.0Y-170.8
X183.2Y-161.8
X183.246Y-188.393
X183.246Y-189.159
X183.246Y-189.893
X183.996Y-188.393
X183.996Y-189.143
X183.996Y-189.893
X184.496Y-184.643
X185.346Y-167.654
X185.6Y-161.2
X185.746Y-186.393
X185.746Y-187.393
X185.8Y-118.2
X186.0Y-116.6
X186.2Y-191.8
X186.2Y-192.6
X186.2Y-193.4
X186.2Y-194.2
X186.2Y-195.0
X186.2Y-195.8
X187.4Y-191.8
X187.4Y-192.6
X187.4Y-193.4
X187.4Y-194.2
X187.4Y-195.0
X187.4Y-195.8
X188.2Y-170.557
X188.4Y-165.2
X188.8Y-167.6
X188.8Y-191.8
X188.8Y-192.6
X188.8Y-193.4
X188.8Y-194.2
X188.8Y-195.0
X188.8Y-195.8
X189.263Y-170.967
X189.4Y-98.4
X189.4Y-100.2
X189.4Y-102.0
X189.8Y-162.8
X189.8Y-191.8
X189.8Y-192.6
X189.8Y-193.4
X189.8Y-194.2
X189.8Y-195.0
X189.8Y-195.8
X189.988Y-168.991
X190.25Y-133.0
X190.4Y-189.6
X190.7Y-104.7
X191.2Y-95.0
X191.29Y-106.49
X191.688Y-98.463
X191.961Y-132.016
X192.0Y-165.0
X192.132Y-106.532
X192.405Y-101.066
X192.565Y-169.8
X192.6Y-173.4
X192.906Y-106.506
X193.12Y-167.536
X193.3Y-102.8
X193.763Y-91.6
X194.0Y-96.6
X194.2Y-107.2
X194.25Y-168.25
X194.6Y-91.037
X194.6Y-167.6
X195.0Y-174.0
X195.0Y-175.6
X195.0Y-177.0
X195.2Y-91.037
X195.2Y-153.4
X195.2Y-169.362
X195.8Y-167.6
X196.0Y-140.25
X196.2Y-174.0
X196.2Y-175.6
X196.2Y-177.0
X196.4Y-87.8
X196.4Y-169.362
X197.2Y-100.0
X197.4Y-108.2
X197.4Y-148.6
X197.4Y-149.8
X197.4Y-159.2
X197.5Y-134.397
X197.5Y-151.25
X197.6Y-174.0
X197.6Y-175.6
X197.6Y-177.0
X197.8Y-169.362
X198.4Y-88.4
X198.8Y-107.6
X198.8Y-174.0
X198.8Y-175.6
X198.8Y-177.0
X199.0Y-109.0
X199.0Y-169.362
X199.1Y-94.3
X199.2Y-168.0
X199.443Y-100.504
X199.463Y-99.839
X199.5Y-98.776
X199.8Y-159.4
X200.0Y-88.4
X200.382Y-101.017
X200.4Y-94.2
X200.4Y-174.0
X200.4Y-175.6
X200.4Y-177.0
X200.5Y-155.25
X200.5Y-98.776
X200.6Y-169.362
X201.278Y-100.051
X201.4Y-99.4
X201.4Y-159.25
X201.5Y-98.5
X201.6Y-88.0
X201.6Y-94.2
X201.6Y-174.0
X201.6Y-175.6
X201.6Y-177.0
X201.8Y-169.362
X202.0Y-97.6
X202.0Y-99.2
X202.199Y-101.042
X202.2Y-106.2
X202.2Y-159.4
X202.6Y-157.0
X202.8Y-94.2
X202.816Y-155.389
X202.852Y-101.024
X202.957Y-97.6
X202.976Y-119.824
X203.0Y-167.8
X203.002Y-99.773
X203.092Y-100.416
X203.2Y-88.0
X203.4Y-174.0
X203.4Y-175.6
X203.4Y-177.0
X203.6Y-109.0
X203.6Y-169.362
X203.75Y-165.0
X204.2Y-167.8
X204.6Y-174.0
X204.6Y-175.6
X204.6Y-177.0
X204.8Y-155.6
X204.8Y-169.362
X205.0Y-108.6
X205.2Y-102.4
X205.21Y-99.712
X205.232Y-101.069
X205.648Y-155.848
X205.8Y-174.0
X205.8Y-175.6
X205.8Y-177.0
X206.0Y-156.8
X206.0Y-169.362
X206.102Y-153.611
X206.2Y-146.6
X206.6Y-156.2
X207.0Y-148.0
X207.0Y-174.0
X207.0Y-175.6
X207.0Y-177.0
X207.018Y-147.0
X207.2Y-169.362
X208.4Y-156.6
X208.4Y-160.8
X208.482Y-155.768
X208.5Y-168.0
X208.6Y-108.6
X209.6Y-168.0
X209.6Y-169.2
X209.663Y-162.622
X210.362Y-154.173
X210.8Y-104.8
X210.843Y-155.557
X211.006Y-154.773
X211.334Y-162.622
X211.4Y-98.4
X212.0Y-156.0
X212.537Y-101.263
X212.7Y-143.75
X212.747Y-170.6
X213.0Y-104.8
X213.178Y-103.222
X213.55Y-144.9
X213.75Y-158.0
X213.75Y-160.303
X213.9Y-123.3
X214.5Y-144.0
X215.4Y-171.2
X215.4Y-172.2
X215.6Y-141.8
X215.8Y-128.2
X215.8Y-140.6
X216.0Y-131.373
X216.0Y-138.75
X216.247Y-134.397
X216.25Y-158.0
X216.25Y-167.0
X216.25Y-171.0
X216.399Y-132.653
X216.403Y-127.373
X216.41Y-133.6
X216.41Y-136.8
X216.86Y-129.5
X216.989Y-136.114
X216.996Y-127.916
X217.0Y-126.1
X217.042Y-128.717
X217.502Y-135.009
X217.549Y-130.103
X217.63Y-125.296
X218.0Y-171.0
X219.0Y-144.2
X219.0Y-145.4
X219.0Y-146.8
X219.0Y-148.0
X219.0Y-149.6
X219.0Y-150.8
X219.0Y-152.6
X219.0Y-153.8
X219.0Y-155.0
X219.0Y-156.2
X219.2Y-140.3
X219.2Y-159.4
X219.2Y-160.6
X219.25Y-167.75
X219.4Y-162.2
X219.75Y-185.25
X220.4Y-164.0
X220.5Y-125.5
X220.587Y-128.797
X220.6Y-126.5
X220.795Y-131.586
X220.8Y-162.2
X221.3Y-127.2
X221.3Y-130.14
X221.4Y-133.9
X221.5Y-135.2
X221.532Y-136.326
X222.4Y-165.0
X222.4Y-166.2
X222.8Y-144.4
X222.8Y-145.6
X222.8Y-147.0
X222.8Y-148.2
X222.8Y-149.8
X222.8Y-151.0
X222.8Y-152.8
X222.8Y-154.0
X222.8Y-155.2
X222.8Y-156.4
X223.3Y-180.4
X223.5Y-190.25
X224.0Y-165.0
X224.0Y-166.2
X224.105Y-136.904
X224.195Y-134.5
X224.195Y-135.805
X224.4Y-160.9
X224.8Y-167.4
X224.8Y-168.6
X226.0Y-141.4
X226.2Y-151.0
X226.2Y-152.2
X226.2Y-153.6
X226.2Y-154.8
X226.2Y-156.4
X226.2Y-157.6
X226.2Y-159.4
X226.2Y-160.6
X226.2Y-161.8
X226.2Y-163.0
X226.4Y-167.4
X226.4Y-168.6
X226.411Y-131.6
X227.0Y-169.6
X227.0Y-170.8
X227.2Y-124.6
X228.0Y-130.6
X228.4Y-151.2
X228.4Y-152.4
X228.4Y-153.6
X228.4Y-154.8
X228.4Y-156.2
X228.4Y-157.6
X228.4Y-158.8
X228.4Y-160.2
X228.4Y-161.6
X228.4Y-163.0
X228.4Y-164.4
X228.6Y-169.6
X228.6Y-170.8
X229.27Y-131.47
X229.4Y-171.8
X229.4Y-173.0
X229.6Y-151.2
X229.6Y-152.4
X229.6Y-153.6
X229.6Y-154.8
X229.6Y-156.2
X229.6Y-157.6
X229.6Y-158.8
X229.6Y-160.2
X229.6Y-161.6
X229.6Y-163.0
X229.6Y-164.4
X230.4Y-166.4
X231.0Y-141.4
X231.0Y-151.2
X231.0Y-152.4
X231.0Y-153.6
X231.0Y-154.8
X231.0Y-156.2
X231.0Y-157.6
X231.0Y-158.8
X231.0Y-160.2
X231.0Y-161.6
X231.0Y-163.0
X231.0Y-164.4
X231.0Y-171.8
X231.0Y-173.0
X231.0Y-174.2
X231.0Y-175.4
X231.1Y-121.2
X231.1Y-124.4
X231.2Y-127.8
X231.6Y-166.4
X231.8Y-129.7
X232.2Y-125.7
X232.2Y-151.2
X232.2Y-152.4
X232.2Y-153.6
X232.2Y-154.8
X232.2Y-156.2
X232.2Y-157.6
X232.2Y-158.8
X232.2Y-160.2
X232.2Y-161.6
X232.2Y-163.0
X232.2Y-164.4
X232.4Y-168.8
X232.6Y-174.2
X232.6Y-175.4
X232.75Y-184.0
X232.75Y-189.0
X233.0Y-166.4
X233.3Y-125.7
X233.4Y-176.4
X233.4Y-177.6
X233.6Y-168.8
X233.8Y-151.2
X233.8Y-152.4
X233.8Y-153.6
X233.8Y-154.8
X233.8Y-156.2
X233.8Y-157.6
X233.8Y-158.8
X233.8Y-160.2
X233.8Y-161.6
X233.8Y-163.0
X233.8Y-164.4
X234.2Y-166.4
X234.4Y-170.8
X234.5Y-125.7
X234.6Y-128.5
X234.6Y-129.4
X235.0Y-151.2
X235.0Y-152.4
X235.0Y-153.6
X235.0Y-154.8
X235.0Y-156.2
X235.0Y-157.6
X235.0Y-158.8
X235.0Y-160.2
X235.0Y-161.6
X235.0Y-163.0
X235.0Y-164.4
X235.0Y-168.8
X235.0Y-176.4
X235.0Y-177.6
X235.6Y-133.6
X235.6Y-170.8
X235.8Y-166.4
X235.8Y-178.6
X235.8Y-179.8
X236.2Y-168.8
X236.8Y-151.2
X236.8Y-152.4
X236.8Y-153.6
X236.8Y-154.8
X236.8Y-156.2
X236.8Y-157.6
X236.8Y-158.8
X236.8Y-160.2
X236.8Y-161.6
X236.8Y-163.0
X236.8Y-164.4
X237.0Y-166.4
X237.0Y-170.8
X237.0Y-184.25
X237.0Y-187.75
X237.2Y-172.8
X237.4Y-178.6
X237.4Y-179.8
X237.5Y-126.3
X237.8Y-168.8
X238.0Y-151.2
X238.0Y-152.4
X238.0Y-153.6
X238.0Y-154.8
X238.0Y-156.2
X238.0Y-157.6
X238.0Y-158.8
X238.0Y-160.2
X238.0Y-161.6
X238.0Y-163.0
X238.0Y-164.4
X238.2Y-170.8
X238.4Y-172.8
X238.8Y-166.4
X239.0Y-135.75
X239.0Y-168.8
X239.2Y-151.2
X239.2Y-152.4
X239.2Y-153.6
X239.2Y-154.8
X239.2Y-156.2
X239.2Y-157.6
X239.2Y-158.8
X239.2Y-160.2
X239.2Y-161.6
X239.2Y-163.0
X239.2Y-164.4
X239.2Y-174.8
X239.8Y-170.8
X239.8Y-172.8
X240.0Y-166.4
X240.25Y-196.5
X240.4Y-151.2
X240.4Y-152.4
X240.4Y-153.6
X240.4Y-154.8
X240.4Y-156.2
X240.4Y-157.6
X240.4Y-158.8
X240.4Y-160.2
X240.4Y-161.6
X240.4Y-163.0
X240.4Y-164.4
X240.4Y-174.8
X240.8Y-168.8
X241.0Y-170.8
X241.0Y-172.8
X241.2Y-166.4
X241.4Y-156.6
X241.5Y-146.2
X241.537Y-149.4
X241.6Y-151.2
X241.6Y-177.2
X241.8Y-153.0
X241.8Y-154.6
X241.8Y-174.8
X242.0Y-168.8
X242.4Y-157.6
X242.4Y-166.4
X242.5Y-192.5
X242.6Y-156.6
X242.6Y-159.0
X242.6Y-160.2
X242.6Y-161.8
X242.6Y-163.0
X242.6Y-164.4
X242.6Y-172.8
X242.8Y-151.2
X242.8Y-170.8
X242.8Y-177.2
X243.0Y-153.0
X243.0Y-154.6
X243.0Y-174.8
X243.2Y-168.8
X243.2Y-196.2
X243.2Y-197.6
X243.2Y-198.8
X243.6Y-157.6
X243.6Y-179.2
X243.8Y-159.0
X243.8Y-160.2
X243.8Y-161.8
X243.8Y-163.0
X243.8Y-164.4
X243.8Y-166.4
X243.8Y-172.8
X244.0Y-156.6
X244.0Y-170.8
X244.2Y-151.2
X244.2Y-177.2
X244.4Y-153.0
X244.4Y-154.6
X244.4Y-168.8
X244.6Y-174.8
X244.8Y-179.2
X245.0Y-157.6
X245.0Y-166.4
X245.0Y-196.2
X245.0Y-197.6
X245.0Y-198.8
X245.2Y-156.6
X245.2Y-159.0
X245.2Y-160.2
X245.2Y-161.8
X245.2Y-163.0
X245.2Y-164.4
X245.2Y-170.8
X245.4Y-151.2
X245.4Y-177.2
X245.6Y-153.0
X245.6Y-154.6
X245.6Y-172.8
X245.8Y-174.8
X246.2Y-157.6
X246.2Y-179.2
X246.4Y-159.0
X246.4Y-160.2
X246.4Y-161.8
X246.4Y-163.0
X246.4Y-164.4
X246.4Y-166.4
X246.4Y-170.8
X246.6Y-196.2
X246.6Y-197.6
X246.6Y-198.8
X246.8Y-156.6
X246.8Y-172.8
X247.0Y-151.2
X247.0Y-177.2
X247.2Y-153.0
X247.2Y-154.6
X247.4Y-179.2
X247.6Y-166.4
X247.6Y-174.8
X247.8Y-157.6
X248.0Y-156.6
X248.0Y-159.0
X248.0Y-160.2
X248.0Y-161.8
X248.0Y-163.0
X248.0Y-164.4
X248.0Y-172.8
X248.2Y-151.2
X248.2Y-177.2
X248.4Y-153.0
X248.4Y-154.6
X248.4Y-196.2
X248.4Y-197.6
X248.4Y-198.8
X248.8Y-174.8
X249.0Y-157.6
X249.0Y-179.2
X249.0Y-192.5
X249.2Y-159.0
X249.2Y-160.2
X249.2Y-161.8
X249.2Y-163.0
X249.2Y-164.4
X249.2Y-166.4
X249.2Y-172.8
X250.0Y-174.8
X250.0Y-177.2
X250.2Y-179.2
X250.25Y-128.25
X250.4Y-166.4
X251.0Y-111.6
X251.0Y-163.0
X251.0Y-164.4
X251.2Y-174.8
X251.2Y-177.2
X252.0Y-179.2
X252.2Y-163.0
X252.2Y-164.4
X252.2Y-166.4
X252.4Y-177.2
X253.2Y-179.2
X253.25Y-196.75
X253.4Y-163.0
X253.4Y-164.4
X253.4Y-166.4
X253.6Y-177.2
X254.4Y-179.2
X254.6Y-163.0
X254.6Y-164.4
X254.6Y-166.4
X255.6Y-179.2
X255.8Y-166.4
X257.25Y-166.75
X258.8Y-194.85
X258.887Y-168.338
X258.9Y-161.8
X260.75Y-123.5
X261.25Y-111.75
X261.675Y-164.6
X261.75Y-121.25
X261.8Y-182.568
X261.852Y-193.7
X261.95Y-180.35
X261.975Y-162.6
X263.0Y-173.8
X263.2Y-175.4
X263.5Y-116.0
X263.9Y-169.8
X264.4Y-154.0
X266.2Y-176.6
X267.375Y-169.3
X268.0Y-111.0
X268.2Y-169.2
X268.25Y-123.25
X269.0Y-128.5
X269.4Y-175.6
X269.675Y-152.825
X269.775Y-157.2
X269.784Y-155.098
X269.925Y-169.375
X270.2Y-173.8
X270.6Y-175.6
X271.0Y-153.2
X271.8Y-169.525
X273.2Y-176.8
X276.2Y-175.6
X277.2Y-159.6
X277.25Y-169.363
X278.4Y-172.2
X280.15Y-172.2
X280.4Y-193.9
X281.229Y-169.367
X281.4Y-164.2
X283.439Y-167.767
X283.45Y-128.75
X283.45Y-195.2
X283.75Y-123.5
X284.0Y-110.75
T4
X103.6Y-67.0
X104.303Y-65.303
X104.303Y-68.697
X104.35Y-196.25
X105.053Y-194.553
X105.053Y-197.947
X106.0Y-64.6
X106.0Y-69.4
X106.75Y-193.85
X106.75Y-198.65
X107.697Y-65.303
X107.697Y-68.697
X108.4Y-67.0
X108.447Y-194.553
X108.447Y-197.947
X109.15Y-196.25
X291.403Y-67.0
X291.797Y-196.5
X292.106Y-65.303
X292.106Y-68.697
X292.5Y-194.803
X292.5Y-198.197
X293.803Y-64.6
X293.803Y-69.4
X294.197Y-194.1
X294.197Y-198.9
X295.5Y-65.303
X295.5Y-68.697
X295.894Y-194.803
X295.894Y-198.197
X296.203Y-67.0
X296.597Y-196.5
T6
X228.0Y-133.53
X228.0Y-134.8
X229.27Y-133.53
X229.27Y-134.8
X230.54Y-133.53
X230.54Y-134.8
X231.81Y-133.53
X231.81Y-134.8
X233.08Y-133.53
X233.08Y-134.8
T7
X166.45Y-80.55
X168.45Y-80.55
X238.8Y-80.55
X240.8Y-80.55
T8
X124.864Y-183.062
X124.864Y-187.562
X126.864Y-183.062
X126.864Y-187.562
X128.864Y-183.062
X128.864Y-187.562
X266.8Y-184.01
X268.07Y-181.47
X269.34Y-184.01
X270.61Y-181.47
X271.88Y-184.01
X273.15Y-181.47
X274.42Y-184.01
X275.69Y-181.47
T9
X118.19Y-116.6
X118.19Y-119.14
X120.73Y-116.6
X120.73Y-119.14
X123.27Y-116.6
X123.27Y-119.14
X125.81Y-116.6
X125.81Y-119.14
X128.0Y-155.0
X167.925Y-114.554
X167.925Y-117.094
X167.925Y-119.634
X167.925Y-122.174
X167.925Y-124.714
X170.465Y-114.554
X170.465Y-117.094
X170.465Y-119.634
X170.465Y-122.174
X170.465Y-124.714
X173.482Y-145.288
X174.4Y-195.8
X182.2Y-195.8
X202.0Y-65.0
X236.5Y-145.26
X236.5Y-147.8
T10
X264.62Y-195.25
X267.16Y-195.25
X275.34Y-195.25
X277.88Y-195.25
T11
X162.95Y-128.35
X162.95Y-134.85
X167.45Y-128.35
X167.45Y-134.85
X254.35Y-114.25
X254.35Y-118.75
X260.85Y-114.25
X260.85Y-118.75
X270.204Y-114.5
X270.204Y-119.0
X270.75Y-127.0
X270.75Y-131.5
X276.704Y-114.5
X276.704Y-119.0
X277.25Y-127.0
X277.25Y-131.5
X285.75Y-127.0
X285.75Y-131.5
X286.15Y-114.25
X286.15Y-118.75
X292.25Y-127.0
X292.25Y-131.5
X292.65Y-114.25
X292.65Y-118.75
T12
X122.85Y-136.0
X143.15Y-136.0
T13
X263.51Y-187.31
X278.99Y-187.31
T14
X123.5Y-197.25
T15
X106.0Y-67.0
X106.75Y-196.25
X293.803Y-67.0
X294.197Y-196.5
T16
X265.53Y-190.36
X276.97Y-190.36
T5
G00X139.43Y-193.595
M15
G01X139.43Y-194.695
M16
G05
G00X139.43Y-197.925
M15
G01X139.43Y-198.725
M16
G05
G00X148.07Y-193.595
M15
G01X148.07Y-194.695
M16
G05
G00X148.07Y-197.925
M15
G01X148.07Y-198.725
M16
G05
G00X241.43Y-193.595
M15
G01X241.43Y-194.695
M16
G05
G00X241.43Y-197.925
M15
G01X241.43Y-198.725
M16
G05
G00X250.07Y-193.595
M15
G01X250.07Y-194.695
M16
G05
G00X250.07Y-197.925
M15
G01X250.07Y-198.725
M16
G05
T8
G00X117.35Y-198.87
M15
G01X117.35Y-197.67
M16
G05
G00X118.25Y-191.63
M15
G01X118.25Y-190.43
M16
G05
G00X123.55Y-191.63
M15
G01X123.55Y-190.43
M16
G05
G00X126.75Y-191.63
M15
G01X126.75Y-190.43
M16
G05
G00X127.15Y-198.87
M15
G01X127.15Y-197.67
M16
G05
M30
