%TF.GenerationSoftware,KiCad,Pcbnew,10.0.5*%
%TF.CreationDate,2026-08-24T17:12:02+08:00*%
%TF.ProjectId,UWB_Positioning_Terminal,5557425f-506f-4736-9974-696f6e696e67,A*%
%TF.SameCoordinates,Original*%
%TF.FileFunction,Soldermask,Top*%
%TF.FilePolarity,Negative*%
%FSLAX46Y46*%
G04 Gerber Fmt 4.6, Leading zero omitted, Abs format (unit mm)*
G04 Created by KiCad (PCBNEW 10.0.5) date 2026-08-24 17:12:02*
%MOMM*%
%LPD*%
G01*
G04 APERTURE LIST*
G04 Aperture macros list*
%AMRoundRect*
0 Rectangle with rounded corners*
0 $1 Rounding radius*
0 $2 $3 $4 $5 $6 $7 $8 $9 X,Y pos of 4 corners*
0 Add a 4 corners polygon primitive as box body*
4,1,4,$2,$3,$4,$5,$6,$7,$8,$9,$2,$3,0*
0 Add four circle primitives for the rounded corners*
1,1,$1+$1,$2,$3*
1,1,$1+$1,$4,$5*
1,1,$1+$1,$6,$7*
1,1,$1+$1,$8,$9*
0 Add four rect primitives between the rounded corners*
20,1,$1+$1,$2,$3,$4,$5,0*
20,1,$1+$1,$4,$5,$6,$7,0*
20,1,$1+$1,$6,$7,$8,$9,0*
20,1,$1+$1,$8,$9,$2,$3,0*%
G04 Aperture macros list end*
%ADD10RoundRect,0.237500X0.300000X0.237500X-0.300000X0.237500X-0.300000X-0.237500X0.300000X-0.237500X0*%
%ADD11RoundRect,0.200000X-0.750000X-0.200000X0.750000X-0.200000X0.750000X0.200000X-0.750000X0.200000X0*%
%ADD12RoundRect,0.237500X0.237500X-0.250000X0.237500X0.250000X-0.237500X0.250000X-0.237500X-0.250000X0*%
%ADD13RoundRect,0.237500X-0.300000X-0.237500X0.300000X-0.237500X0.300000X0.237500X-0.300000X0.237500X0*%
%ADD14RoundRect,0.237500X-0.237500X0.300000X-0.237500X-0.300000X0.237500X-0.300000X0.237500X0.300000X0*%
%ADD15RoundRect,0.250000X-0.475000X0.337500X-0.475000X-0.337500X0.475000X-0.337500X0.475000X0.337500X0*%
%ADD16RoundRect,0.250000X0.337500X0.475000X-0.337500X0.475000X-0.337500X-0.475000X0.337500X-0.475000X0*%
%ADD17C,1.500000*%
%ADD18RoundRect,0.250000X0.475000X-0.337500X0.475000X0.337500X-0.475000X0.337500X-0.475000X-0.337500X0*%
%ADD19R,1.700000X1.700000*%
%ADD20R,0.400000X0.900000*%
%ADD21C,1.800000*%
%ADD22RoundRect,0.237500X0.237500X-0.287500X0.237500X0.287500X-0.237500X0.287500X-0.237500X-0.287500X0*%
%ADD23RoundRect,0.237500X-0.237500X0.250000X-0.237500X-0.250000X0.237500X-0.250000X0.237500X0.250000X0*%
%ADD24RoundRect,0.250000X0.650000X-1.000000X0.650000X1.000000X-0.650000X1.000000X-0.650000X-1.000000X0*%
%ADD25RoundRect,0.250000X0.900000X-1.500000X0.900000X1.500000X-0.900000X1.500000X-0.900000X-1.500000X0*%
%ADD26RoundRect,0.237500X0.237500X-0.300000X0.237500X0.300000X-0.237500X0.300000X-0.237500X-0.300000X0*%
%ADD27RoundRect,0.250000X-0.275000X-0.350000X0.275000X-0.350000X0.275000X0.350000X-0.275000X0.350000X0*%
%ADD28RoundRect,0.250000X-0.337500X-0.475000X0.337500X-0.475000X0.337500X0.475000X-0.337500X0.475000X0*%
%ADD29RoundRect,0.250000X0.625000X-0.375000X0.625000X0.375000X-0.625000X0.375000X-0.625000X-0.375000X0*%
%ADD30RoundRect,0.250000X-0.350000X-0.450000X0.350000X-0.450000X0.350000X0.450000X-0.350000X0.450000X0*%
%ADD31RoundRect,0.237500X0.250000X0.237500X-0.250000X0.237500X-0.250000X-0.237500X0.250000X-0.237500X0*%
%ADD32RoundRect,0.250000X0.650000X-1.500000X0.650000X1.500000X-0.650000X1.500000X-0.650000X-1.500000X0*%
%ADD33RoundRect,0.237500X-0.250000X-0.237500X0.250000X-0.237500X0.250000X0.237500X-0.250000X0.237500X0*%
%ADD34C,3.000000*%
%ADD35C,1.700000*%
%ADD36C,1.000000*%
%ADD37RoundRect,0.250000X-0.350000X-0.625000X0.350000X-0.625000X0.350000X0.625000X-0.350000X0.625000X0*%
%ADD38O,1.200000X1.750000*%
%ADD39RoundRect,0.150000X0.150000X-0.587500X0.150000X0.587500X-0.150000X0.587500X-0.150000X-0.587500X0*%
%ADD40R,1.500000X1.000000*%
%ADD41C,2.100000*%
%ADD42O,1.600000X3.000000*%
%ADD43RoundRect,0.062500X0.062500X-0.350000X0.062500X0.350000X-0.062500X0.350000X-0.062500X-0.350000X0*%
%ADD44RoundRect,0.062500X0.350000X-0.062500X0.350000X0.062500X-0.350000X0.062500X-0.350000X-0.062500X0*%
%ADD45R,1.230000X1.230000*%
%ADD46RoundRect,0.237500X-0.237500X-0.812500X0.237500X-0.812500X0.237500X0.812500X-0.237500X0.812500X0*%
%ADD47RoundRect,0.062500X-0.350000X-0.062500X0.350000X-0.062500X0.350000X0.062500X-0.350000X0.062500X0*%
%ADD48RoundRect,0.062500X-0.062500X-0.350000X0.062500X-0.350000X0.062500X0.350000X-0.062500X0.350000X0*%
%ADD49R,2.700000X2.700000*%
%ADD50R,0.800000X0.300000*%
%ADD51R,1.750000X2.550000*%
%ADD52C,2.000000*%
%ADD53RoundRect,0.250000X0.350000X0.450000X-0.350000X0.450000X-0.350000X-0.450000X0.350000X-0.450000X0*%
%ADD54RoundRect,0.150000X-0.587500X-0.150000X0.587500X-0.150000X0.587500X0.150000X-0.587500X0.150000X0*%
%ADD55C,0.800000*%
%ADD56C,6.400000*%
%ADD57RoundRect,0.225000X0.225000X0.375000X-0.225000X0.375000X-0.225000X-0.375000X0.225000X-0.375000X0*%
%ADD58RoundRect,0.250000X1.500000X-0.925000X1.500000X0.925000X-1.500000X0.925000X-1.500000X-0.925000X0*%
%ADD59RoundRect,0.150000X0.150000X-0.512500X0.150000X0.512500X-0.150000X0.512500X-0.150000X-0.512500X0*%
%ADD60RoundRect,0.250000X-0.650000X1.000000X-0.650000X-1.000000X0.650000X-1.000000X0.650000X1.000000X0*%
%ADD61RoundRect,0.250000X0.412500X1.100000X-0.412500X1.100000X-0.412500X-1.100000X0.412500X-1.100000X0*%
%ADD62RoundRect,0.100000X-0.100000X0.217500X-0.100000X-0.217500X0.100000X-0.217500X0.100000X0.217500X0*%
%ADD63RoundRect,0.150000X0.587500X0.150000X-0.587500X0.150000X-0.587500X-0.150000X0.587500X-0.150000X0*%
%ADD64R,1.524000X1.524000*%
%ADD65C,1.524000*%
%ADD66RoundRect,0.250000X1.412500X0.550000X-1.412500X0.550000X-1.412500X-0.550000X1.412500X-0.550000X0*%
%ADD67C,0.240000*%
%ADD68RoundRect,0.249999X0.875001X-0.630001X0.875001X0.630001X-0.875001X0.630001X-0.875001X-0.630001X0*%
%ADD69RoundRect,0.250000X-0.450000X0.350000X-0.450000X-0.350000X0.450000X-0.350000X0.450000X0.350000X0*%
%ADD70RoundRect,0.250001X-0.949999X-2.599999X0.949999X-2.599999X0.949999X2.599999X-0.949999X2.599999X0*%
%ADD71C,0.600000*%
%ADD72C,2.200000*%
%ADD73R,1.600000X0.300000*%
%ADD74RoundRect,0.250000X0.312500X1.450000X-0.312500X1.450000X-0.312500X-1.450000X0.312500X-1.450000X0*%
%ADD75R,1.200000X0.400000*%
%ADD76RoundRect,0.225000X0.375000X-0.225000X0.375000X0.225000X-0.375000X0.225000X-0.375000X-0.225000X0*%
%ADD77RoundRect,0.225000X-0.375000X0.225000X-0.375000X-0.225000X0.375000X-0.225000X0.375000X0.225000X0*%
%ADD78RoundRect,0.162500X0.162500X-0.837500X0.162500X0.837500X-0.162500X0.837500X-0.162500X-0.837500X0*%
%ADD79RoundRect,0.225000X-0.225000X-0.375000X0.225000X-0.375000X0.225000X0.375000X-0.225000X0.375000X0*%
%ADD80RoundRect,0.250000X0.450000X-0.350000X0.450000X0.350000X-0.450000X0.350000X-0.450000X-0.350000X0*%
%ADD81R,1.050000X0.600000*%
%ADD82R,0.250000X0.700000*%
%ADD83R,0.700000X0.250000*%
%ADD84R,0.400000X0.500000*%
%ADD85RoundRect,0.250000X0.650000X-0.412500X0.650000X0.412500X-0.650000X0.412500X-0.650000X-0.412500X0*%
%ADD86R,1.800000X1.000000*%
%ADD87R,2.000000X1.000000*%
%ADD88C,0.650000*%
%ADD89RoundRect,0.150000X-0.150000X-0.425000X0.150000X-0.425000X0.150000X0.425000X-0.150000X0.425000X0*%
%ADD90RoundRect,0.075000X-0.075000X-0.500000X0.075000X-0.500000X0.075000X0.500000X-0.075000X0.500000X0*%
%ADD91O,1.000000X2.100000*%
%ADD92O,1.000000X1.800000*%
%ADD93R,0.300000X1.300000*%
%ADD94R,1.800000X2.200000*%
%ADD95RoundRect,0.075000X0.075000X-0.350000X0.075000X0.350000X-0.075000X0.350000X-0.075000X-0.350000X0*%
%ADD96RoundRect,0.075000X0.350000X-0.075000X0.350000X0.075000X-0.350000X0.075000X-0.350000X-0.075000X0*%
%ADD97R,2.650000X2.650000*%
%ADD98R,0.600000X1.050000*%
%ADD99C,3.300000*%
%ADD100R,1.600000X1.600000*%
%ADD101C,1.600000*%
%ADD102C,2.500000*%
%ADD103RoundRect,0.250000X-1.412500X-0.550000X1.412500X-0.550000X1.412500X0.550000X-1.412500X0.550000X0*%
%ADD104R,1.000000X1.000000*%
%ADD105RoundRect,0.162500X0.837500X0.162500X-0.837500X0.162500X-0.837500X-0.162500X0.837500X-0.162500X0*%
G04 APERTURE END LIST*
D10*
%TO.C,C48*%
X264862500Y-162606000D03*
X263137500Y-162606000D03*
%TD*%
D11*
%TO.C,Q2*%
X159500000Y-119650000D03*
X159500000Y-121550000D03*
X162500000Y-120600000D03*
%TD*%
D12*
%TO.C,R88*%
X284066000Y-113602500D03*
X284066000Y-111777500D03*
%TD*%
D13*
%TO.C,C25*%
X156295000Y-163068000D03*
X158020000Y-163068000D03*
%TD*%
D14*
%TO.C,R53*%
X265393000Y-153928500D03*
X265393000Y-155653500D03*
%TD*%
%TO.C,R52*%
X261852000Y-194951500D03*
X261852000Y-196676500D03*
%TD*%
D15*
%TO.C,C74*%
X140750000Y-115712500D03*
X140750000Y-117787500D03*
%TD*%
D16*
%TO.C,R62*%
X161037500Y-116200000D03*
X158962500Y-116200000D03*
%TD*%
D17*
%TO.C,TP2*%
X130890000Y-167300000D03*
%TD*%
D18*
%TO.C,C7*%
X125400000Y-164350000D03*
X125400000Y-162275000D03*
%TD*%
D12*
%TO.C,R6*%
X123090000Y-169662500D03*
X123090000Y-167837500D03*
%TD*%
D19*
%TO.C,TP15*%
X173482000Y-145288000D03*
%TD*%
D20*
%TO.C,RN2*%
X197400000Y-163450000D03*
X198200000Y-163450000D03*
X199000000Y-163450000D03*
X199800000Y-163450000D03*
X199800000Y-161750000D03*
X199000000Y-161750000D03*
X198200000Y-161750000D03*
X197400000Y-161750000D03*
%TD*%
%TO.C,RN3*%
X201400000Y-163450000D03*
X202200000Y-163450000D03*
X203000000Y-163450000D03*
X203800000Y-163450000D03*
X203800000Y-161750000D03*
X203000000Y-161750000D03*
X202200000Y-161750000D03*
X201400000Y-161750000D03*
%TD*%
D21*
%TO.C,SW4*%
X254350000Y-114250000D03*
X260850000Y-114250000D03*
X254350000Y-118750000D03*
X260850000Y-118750000D03*
%TD*%
D22*
%TO.C,L6*%
X271800000Y-168475000D03*
X271800000Y-166725000D03*
%TD*%
D14*
%TO.C,R60*%
X171800000Y-131737500D03*
X171800000Y-133462500D03*
%TD*%
D23*
%TO.C,R4*%
X125240000Y-166637500D03*
X125240000Y-168462500D03*
%TD*%
D13*
%TO.C,C20*%
X145119000Y-160020000D03*
X146844000Y-160020000D03*
%TD*%
D24*
%TO.C,D10*%
X166800000Y-193500000D03*
X166800000Y-189500000D03*
%TD*%
D14*
%TO.C,R51*%
X260074000Y-194951500D03*
X260074000Y-196676500D03*
%TD*%
D18*
%TO.C,C6*%
X116625000Y-164308342D03*
X116625000Y-162233342D03*
%TD*%
D25*
%TO.C,D3*%
X135250000Y-192950000D03*
X135250000Y-187550000D03*
%TD*%
D10*
%TO.C,C58*%
X197062500Y-107000000D03*
X195337500Y-107000000D03*
%TD*%
D12*
%TO.C,R15*%
X130750000Y-155912500D03*
X130750000Y-154087500D03*
%TD*%
D23*
%TO.C,R21*%
X162237500Y-154535500D03*
X162237500Y-156360500D03*
%TD*%
D10*
%TO.C,C19*%
X146844000Y-158242000D03*
X145119000Y-158242000D03*
%TD*%
D26*
%TO.C,C54*%
X203200000Y-91262500D03*
X203200000Y-89537500D03*
%TD*%
D10*
%TO.C,C31*%
X163418500Y-173736000D03*
X161693500Y-173736000D03*
%TD*%
D19*
%TO.C,TP1*%
X182200000Y-195800000D03*
%TD*%
D27*
%TO.C,L5*%
X248957500Y-191250000D03*
X251257500Y-191250000D03*
%TD*%
D13*
%TO.C,R55*%
X274479500Y-161336000D03*
X276204500Y-161336000D03*
%TD*%
D20*
%TO.C,RN1*%
X205200000Y-159650000D03*
X206000000Y-159650000D03*
X206800000Y-159650000D03*
X207600000Y-159650000D03*
X207600000Y-157950000D03*
X206800000Y-157950000D03*
X206000000Y-157950000D03*
X205200000Y-157950000D03*
%TD*%
D21*
%TO.C,SW7*%
X285750000Y-127000000D03*
X292250000Y-127000000D03*
X285750000Y-131500000D03*
X292250000Y-131500000D03*
%TD*%
D20*
%TO.C,RN5*%
X209400000Y-159650000D03*
X210200000Y-159650000D03*
X211000000Y-159650000D03*
X211800000Y-159650000D03*
X211800000Y-157950000D03*
X211000000Y-157950000D03*
X210200000Y-157950000D03*
X209400000Y-157950000D03*
%TD*%
D28*
%TO.C,C68*%
X258038500Y-111674000D03*
X260113500Y-111674000D03*
%TD*%
D29*
%TO.C,F1*%
X139750000Y-190400000D03*
X139750000Y-187600000D03*
%TD*%
D14*
%TO.C,C50*%
X278390000Y-169363500D03*
X278390000Y-171088500D03*
%TD*%
D30*
%TO.C,R20*%
X159967500Y-160528000D03*
X161967500Y-160528000D03*
%TD*%
D16*
%TO.C,R66*%
X241537500Y-148000000D03*
X239462500Y-148000000D03*
%TD*%
D31*
%TO.C,R81*%
X271774500Y-111924000D03*
X269949500Y-111924000D03*
%TD*%
D32*
%TO.C,D6*%
X115114000Y-189312000D03*
X115114000Y-184312000D03*
%TD*%
D14*
%TO.C,R69*%
X157000000Y-119737500D03*
X157000000Y-121462500D03*
%TD*%
%TO.C,R65*%
X163100000Y-123737500D03*
X163100000Y-125462500D03*
%TD*%
D16*
%TO.C,C36*%
X160037500Y-190400000D03*
X157962500Y-190400000D03*
%TD*%
D33*
%TO.C,R74*%
X190697500Y-102044000D03*
X192522500Y-102044000D03*
%TD*%
D20*
%TO.C,RN4*%
X192905000Y-162075000D03*
X193705000Y-162075000D03*
X194505000Y-162075000D03*
X195305000Y-162075000D03*
X195305000Y-160375000D03*
X194505000Y-160375000D03*
X193705000Y-160375000D03*
X192905000Y-160375000D03*
%TD*%
D34*
%TO.C,TP6*%
X110566000Y-184312000D03*
%TD*%
D19*
%TO.C,J8*%
X236500000Y-147800000D03*
D35*
X236500000Y-145260000D03*
%TD*%
D13*
%TO.C,C22*%
X145119000Y-163500000D03*
X146844000Y-163500000D03*
%TD*%
D36*
%TO.C,TP14*%
X192800000Y-158400000D03*
%TD*%
D31*
%TO.C,R11*%
X118412500Y-168000000D03*
X116587500Y-168000000D03*
%TD*%
D18*
%TO.C,D2*%
X168400000Y-146075000D03*
X168400000Y-144000000D03*
%TD*%
D37*
%TO.C,LS2*%
X166450000Y-80550000D03*
D38*
X168450000Y-80550000D03*
%TD*%
D39*
%TO.C,D15*%
X145850000Y-136137500D03*
X147750000Y-136137500D03*
X146800000Y-134262500D03*
%TD*%
D28*
%TO.C,C4*%
X186909000Y-190443000D03*
X188984000Y-190443000D03*
%TD*%
D36*
%TO.C,TP11*%
X274200000Y-163400000D03*
%TD*%
D40*
%TO.C,D1*%
X164416000Y-145463500D03*
X164416000Y-144063500D03*
X160916000Y-144063500D03*
X160916000Y-145463500D03*
%TD*%
D33*
%TO.C,R80*%
X147087500Y-119000000D03*
X148912500Y-119000000D03*
%TD*%
D41*
%TO.C,J2*%
X123500000Y-197250000D03*
D42*
X126750000Y-191030000D03*
X118250000Y-191030000D03*
X123550000Y-191030000D03*
X117350000Y-198270000D03*
X127150000Y-198270000D03*
%TD*%
D15*
%TO.C,R64*%
X165000000Y-119562500D03*
X165000000Y-121637500D03*
%TD*%
D10*
%TO.C,C61*%
X202062500Y-107340000D03*
X200337500Y-107340000D03*
%TD*%
D26*
%TO.C,R41*%
X266000000Y-175562500D03*
X266000000Y-173837500D03*
%TD*%
D43*
%TO.C,U10*%
X134690000Y-117247500D03*
X135190000Y-117247500D03*
X135690000Y-117247500D03*
X136190000Y-117247500D03*
D44*
X136877500Y-116560000D03*
X136877500Y-116060000D03*
X136877500Y-115560000D03*
X136877500Y-115060000D03*
D43*
X136190000Y-114372500D03*
X135690000Y-114372500D03*
X135190000Y-114372500D03*
X134690000Y-114372500D03*
D44*
X134002500Y-115060000D03*
X134002500Y-115560000D03*
X134002500Y-116060000D03*
X134002500Y-116560000D03*
D45*
X135440000Y-115810000D03*
%TD*%
D16*
%TO.C,D5*%
X134787500Y-155000000D03*
X132712500Y-155000000D03*
%TD*%
D15*
%TO.C,C38*%
X269968000Y-166362500D03*
X269968000Y-168437500D03*
%TD*%
D26*
%TO.C,R57*%
X282200000Y-167786500D03*
X282200000Y-166061500D03*
%TD*%
%TO.C,C40*%
X271489000Y-156161500D03*
X271489000Y-154436500D03*
%TD*%
D17*
%TO.C,TP12*%
X146800000Y-131400000D03*
%TD*%
D14*
%TO.C,R37*%
X252107500Y-194887500D03*
X252107500Y-196612500D03*
%TD*%
D46*
%TO.C,L4*%
X162175000Y-189500000D03*
X163825000Y-189500000D03*
%TD*%
D47*
%TO.C,U4*%
X149872000Y-159724000D03*
X149872000Y-160224000D03*
X149872000Y-160724000D03*
X149872000Y-161224000D03*
X149872000Y-161724000D03*
X149872000Y-162224000D03*
D48*
X150584500Y-162936500D03*
X151084500Y-162936500D03*
X151584500Y-162936500D03*
X152084500Y-162936500D03*
X152584500Y-162936500D03*
X153084500Y-162936500D03*
D47*
X153797000Y-162224000D03*
X153797000Y-161724000D03*
X153797000Y-161224000D03*
X153797000Y-160724000D03*
X153797000Y-160224000D03*
X153797000Y-159724000D03*
D48*
X153084500Y-159011500D03*
X152584500Y-159011500D03*
X152084500Y-159011500D03*
X151584500Y-159011500D03*
X151084500Y-159011500D03*
X150584500Y-159011500D03*
D49*
X151834500Y-160974000D03*
%TD*%
D50*
%TO.C,U2*%
X185128500Y-190134000D03*
X185128500Y-189484000D03*
X185128500Y-188834000D03*
X185128500Y-188184000D03*
X182128500Y-188184000D03*
X182128500Y-188834000D03*
X182128500Y-189484000D03*
X182128500Y-190134000D03*
D51*
X183628500Y-189159000D03*
%TD*%
D13*
%TO.C,R43*%
X263137500Y-157331000D03*
X264862500Y-157331000D03*
%TD*%
D52*
%TO.C,BT1*%
X143150000Y-136000000D03*
X122850000Y-136000000D03*
%TD*%
D26*
%TO.C,R36*%
X239107500Y-196612500D03*
X239107500Y-194887500D03*
%TD*%
D19*
%TO.C,J7*%
X167925000Y-114554000D03*
D35*
X170465000Y-114554000D03*
X167925000Y-117094000D03*
X170465000Y-117094000D03*
X167925000Y-119634000D03*
X170465000Y-119634000D03*
X167925000Y-122174000D03*
X170465000Y-122174000D03*
X167925000Y-124714000D03*
X170465000Y-124714000D03*
%TD*%
D15*
%TO.C,C43*%
X265944000Y-166843500D03*
X265944000Y-168918500D03*
%TD*%
D33*
%TO.C,R76*%
X209887500Y-104800000D03*
X211712500Y-104800000D03*
%TD*%
D26*
%TO.C,C45*%
X264200000Y-175562500D03*
X264200000Y-173837500D03*
%TD*%
D28*
%TO.C,C69*%
X274180500Y-124460000D03*
X276255500Y-124460000D03*
%TD*%
D53*
%TO.C,R28*%
X179900000Y-168800000D03*
X177900000Y-168800000D03*
%TD*%
D14*
%TO.C,R49*%
X280380000Y-195205500D03*
X280380000Y-196930500D03*
%TD*%
D33*
%TO.C,R73*%
X190697500Y-103800000D03*
X192522500Y-103800000D03*
%TD*%
D14*
%TO.C,C65*%
X149500000Y-115525000D03*
X149500000Y-117250000D03*
%TD*%
D54*
%TO.C,D7*%
X146822000Y-154498000D03*
X146822000Y-156398000D03*
X148697000Y-155448000D03*
%TD*%
D13*
%TO.C,R45*%
X263137500Y-160887000D03*
X264862500Y-160887000D03*
%TD*%
D26*
%TO.C,R42*%
X268150000Y-175562500D03*
X268150000Y-173837500D03*
%TD*%
D28*
%TO.C,R56*%
X262762500Y-164638000D03*
X264837500Y-164638000D03*
%TD*%
D30*
%TO.C,R79*%
X124700000Y-113552000D03*
X126700000Y-113552000D03*
%TD*%
%TO.C,R78*%
X117300000Y-113552000D03*
X119300000Y-113552000D03*
%TD*%
D55*
%TO.C,H1*%
X104350000Y-196250000D03*
X105052944Y-194552944D03*
X105052944Y-197947056D03*
X106750000Y-193850000D03*
D56*
X106750000Y-196250000D03*
D55*
X106750000Y-198650000D03*
X108447056Y-194552944D03*
X108447056Y-197947056D03*
X109150000Y-196250000D03*
%TD*%
D10*
%TO.C,R54*%
X276204500Y-159558000D03*
X274479500Y-159558000D03*
%TD*%
D14*
%TO.C,R48*%
X267425000Y-153937500D03*
X267425000Y-155662500D03*
%TD*%
D28*
%TO.C,R63*%
X162962500Y-116200000D03*
X165037500Y-116200000D03*
%TD*%
D31*
%TO.C,R8*%
X128602500Y-169700000D03*
X126777500Y-169700000D03*
%TD*%
D26*
%TO.C,C28*%
X211200000Y-163662500D03*
X211200000Y-161937500D03*
%TD*%
D55*
%TO.C,H2*%
X291402944Y-67000000D03*
X292105888Y-65302944D03*
X292105888Y-68697056D03*
X293802944Y-64600000D03*
D56*
X293802944Y-67000000D03*
D55*
X293802944Y-69400000D03*
X295500000Y-65302944D03*
X295500000Y-68697056D03*
X296202944Y-67000000D03*
%TD*%
D57*
%TO.C,D11*%
X256257500Y-191250000D03*
X252957500Y-191250000D03*
%TD*%
D33*
%TO.C,R93*%
X136087500Y-119000000D03*
X137912500Y-119000000D03*
%TD*%
D14*
%TO.C,C17*%
X141155500Y-154585500D03*
X141155500Y-156310500D03*
%TD*%
D26*
%TO.C,C26*%
X207800000Y-163662500D03*
X207800000Y-161937500D03*
%TD*%
D12*
%TO.C,R84*%
X252239500Y-113452000D03*
X252239500Y-111627000D03*
%TD*%
D30*
%TO.C,R22*%
X159967500Y-158496000D03*
X161967500Y-158496000D03*
%TD*%
D33*
%TO.C,R31*%
X158087500Y-188400000D03*
X159912500Y-188400000D03*
%TD*%
D26*
%TO.C,R58*%
X237600000Y-135792500D03*
X237600000Y-134067500D03*
%TD*%
D14*
%TO.C,C85*%
X121490000Y-167837500D03*
X121490000Y-169562500D03*
%TD*%
D58*
%TO.C,L1*%
X130125000Y-164275000D03*
X130125000Y-158225000D03*
%TD*%
D59*
%TO.C,U6*%
X245157500Y-190387500D03*
X246107500Y-190387500D03*
X247057500Y-190387500D03*
X247057500Y-188112500D03*
X246107500Y-188112500D03*
X245157500Y-188112500D03*
%TD*%
D12*
%TO.C,R90*%
X283769500Y-126606500D03*
X283769500Y-124781500D03*
%TD*%
D33*
%TO.C,R72*%
X190697500Y-98400000D03*
X192522500Y-98400000D03*
%TD*%
D10*
%TO.C,R47*%
X276204500Y-157780000D03*
X274479500Y-157780000D03*
%TD*%
D13*
%TO.C,R44*%
X263137500Y-159109000D03*
X264862500Y-159109000D03*
%TD*%
D60*
%TO.C,D9*%
X158750000Y-165640000D03*
X158750000Y-169640000D03*
%TD*%
D61*
%TO.C,C10*%
X125052500Y-154800000D03*
X121927500Y-154800000D03*
%TD*%
D62*
%TO.C,L2*%
X192900000Y-163392500D03*
X192900000Y-164207500D03*
%TD*%
D31*
%TO.C,R14*%
X144162500Y-190500000D03*
X142337500Y-190500000D03*
%TD*%
D23*
%TO.C,R2*%
X160666000Y-140351000D03*
X160666000Y-142176000D03*
%TD*%
D14*
%TO.C,C15*%
X150807500Y-154585500D03*
X150807500Y-156310500D03*
%TD*%
D63*
%TO.C,D8*%
X156571000Y-156398000D03*
X156571000Y-154498000D03*
X154696000Y-155448000D03*
%TD*%
D26*
%TO.C,C42*%
X271400000Y-175567500D03*
X271400000Y-173842500D03*
%TD*%
D64*
%TO.C,SW1*%
X128864000Y-187562000D03*
D65*
X126864000Y-187562000D03*
X124864000Y-187562000D03*
X128864000Y-183062000D03*
X126864000Y-183062000D03*
X124864000Y-183062000D03*
%TD*%
D14*
%TO.C,C3*%
X180346500Y-189566500D03*
X180346500Y-191291500D03*
%TD*%
D19*
%TO.C,J9*%
X118190000Y-119140000D03*
D35*
X118190000Y-116600000D03*
X120730000Y-119140000D03*
X120730000Y-116600000D03*
X123270000Y-119140000D03*
X123270000Y-116600000D03*
X125810000Y-119140000D03*
X125810000Y-116600000D03*
%TD*%
D66*
%TO.C,C30*%
X147537500Y-167944000D03*
X142462500Y-167944000D03*
%TD*%
D31*
%TO.C,R89*%
X287476000Y-124678000D03*
X285651000Y-124678000D03*
%TD*%
D13*
%TO.C,C21*%
X145119000Y-162000000D03*
X146844000Y-162000000D03*
%TD*%
D67*
%TO.C,U9*%
X198000000Y-102552000D03*
X198000000Y-102052000D03*
X198000000Y-101552000D03*
X198000000Y-101052000D03*
X198000000Y-100552000D03*
X198000000Y-100052000D03*
X198000000Y-99552000D03*
X198000000Y-99052000D03*
X198000000Y-98552000D03*
X198000000Y-98052000D03*
X198000000Y-97552000D03*
X198000000Y-97052000D03*
X198000000Y-96552000D03*
X198000000Y-96052000D03*
X198500000Y-102552000D03*
X198500000Y-102052000D03*
X198500000Y-101552000D03*
X198500000Y-101052000D03*
X198500000Y-100552000D03*
X198500000Y-100052000D03*
X198500000Y-99552000D03*
X198500000Y-99052000D03*
X198500000Y-98552000D03*
X198500000Y-98052000D03*
X198500000Y-97552000D03*
X198500000Y-97052000D03*
X198500000Y-96552000D03*
X198500000Y-96052000D03*
X199000000Y-102552000D03*
X199000000Y-102052000D03*
X199000000Y-101552000D03*
X199000000Y-101052000D03*
X199000000Y-100552000D03*
X199000000Y-100052000D03*
X199000000Y-99552000D03*
X199000000Y-99052000D03*
X199000000Y-98552000D03*
X199000000Y-98052000D03*
X199000000Y-97552000D03*
X199000000Y-97052000D03*
X199000000Y-96552000D03*
X199000000Y-96052000D03*
X199500000Y-102552000D03*
X199500000Y-102052000D03*
X199500000Y-101552000D03*
X199500000Y-101052000D03*
X199500000Y-97052000D03*
X199500000Y-96552000D03*
X199500000Y-96052000D03*
X200000000Y-102552000D03*
X200000000Y-102052000D03*
X200000000Y-101552000D03*
X200000000Y-100552000D03*
X200000000Y-100052000D03*
X200000000Y-99552000D03*
X200000000Y-99052000D03*
X200000000Y-98552000D03*
X200000000Y-98052000D03*
X200000000Y-97052000D03*
X200000000Y-96552000D03*
X200000000Y-96052000D03*
X200500000Y-102552000D03*
X200500000Y-102052000D03*
X200500000Y-101552000D03*
X200500000Y-100552000D03*
X200500000Y-98052000D03*
X200500000Y-97052000D03*
X200500000Y-96552000D03*
X200500000Y-96052000D03*
X201000000Y-102552000D03*
X201000000Y-102052000D03*
X201000000Y-101552000D03*
X201000000Y-100552000D03*
X201000000Y-98052000D03*
X201000000Y-97052000D03*
X201000000Y-96552000D03*
X201000000Y-96052000D03*
X201500000Y-102552000D03*
X201500000Y-102052000D03*
X201500000Y-101552000D03*
X201500000Y-100552000D03*
X201500000Y-98052000D03*
X201500000Y-97052000D03*
X201500000Y-96552000D03*
X201500000Y-96052000D03*
X202000000Y-102552000D03*
X202000000Y-102052000D03*
X202000000Y-101552000D03*
X202000000Y-100552000D03*
X202000000Y-98052000D03*
X202000000Y-97052000D03*
X202000000Y-96552000D03*
X202000000Y-96052000D03*
X202500000Y-102552000D03*
X202500000Y-102052000D03*
X202500000Y-101552000D03*
X202500000Y-100552000D03*
X202500000Y-100052000D03*
X202500000Y-99552000D03*
X202500000Y-99052000D03*
X202500000Y-98552000D03*
X202500000Y-98052000D03*
X202500000Y-97052000D03*
X202500000Y-96552000D03*
X202500000Y-96052000D03*
X203000000Y-102552000D03*
X203000000Y-102052000D03*
X203000000Y-101552000D03*
X203000000Y-97052000D03*
X203000000Y-96552000D03*
X203000000Y-96052000D03*
X203500000Y-102552000D03*
X203500000Y-102052000D03*
X203500000Y-101552000D03*
X203500000Y-101052000D03*
X203500000Y-100552000D03*
X203500000Y-100052000D03*
X203500000Y-99552000D03*
X203500000Y-99052000D03*
X203500000Y-98552000D03*
X203500000Y-98052000D03*
X203500000Y-97552000D03*
X203500000Y-97052000D03*
X203500000Y-96552000D03*
X203500000Y-96052000D03*
X204000000Y-102552000D03*
X204000000Y-102052000D03*
X204000000Y-101552000D03*
X204000000Y-101052000D03*
X204000000Y-100552000D03*
X204000000Y-100052000D03*
X204000000Y-99552000D03*
X204000000Y-99052000D03*
X204000000Y-98552000D03*
X204000000Y-98052000D03*
X204000000Y-97552000D03*
X204000000Y-97052000D03*
X204000000Y-96552000D03*
X204000000Y-96052000D03*
X204500000Y-102552000D03*
X204500000Y-102052000D03*
X204500000Y-101552000D03*
X204500000Y-101052000D03*
X204500000Y-100552000D03*
X204500000Y-100052000D03*
X204500000Y-99552000D03*
X204500000Y-99052000D03*
X204500000Y-98552000D03*
X204500000Y-98052000D03*
X204500000Y-97552000D03*
X204500000Y-97052000D03*
X204500000Y-96552000D03*
X204500000Y-96052000D03*
%TD*%
D26*
%TO.C,C59*%
X192400000Y-96662500D03*
X192400000Y-94937500D03*
%TD*%
D23*
%TO.C,R10*%
X180346500Y-185960500D03*
X180346500Y-187785500D03*
%TD*%
D14*
%TO.C,C16*%
X152585500Y-154585500D03*
X152585500Y-156310500D03*
%TD*%
D68*
%TO.C,Y1*%
X279675000Y-166750000D03*
X279675000Y-164050000D03*
X276725000Y-164050000D03*
X276725000Y-166750000D03*
%TD*%
D20*
%TO.C,FL1*%
X246507500Y-185100000D03*
X246507500Y-183400000D03*
X245707500Y-183400000D03*
X245707500Y-185100000D03*
%TD*%
D31*
%TO.C,R23*%
X163468500Y-172212000D03*
X161643500Y-172212000D03*
%TD*%
D69*
%TO.C,R27*%
X216400000Y-159200000D03*
X216400000Y-161200000D03*
%TD*%
D23*
%TO.C,R24*%
X159750000Y-172087500D03*
X159750000Y-173912500D03*
%TD*%
D61*
%TO.C,C9*%
X125052500Y-158300000D03*
X121927500Y-158300000D03*
%TD*%
D13*
%TO.C,C2*%
X126877500Y-168000000D03*
X128602500Y-168000000D03*
%TD*%
D31*
%TO.C,R9*%
X188605000Y-186443000D03*
X186780000Y-186443000D03*
%TD*%
D18*
%TO.C,C72*%
X232860000Y-187524000D03*
X232860000Y-185449000D03*
%TD*%
D70*
%TO.C,L3*%
X151150000Y-167944000D03*
X155350000Y-167944000D03*
%TD*%
D18*
%TO.C,C57*%
X196400000Y-91037500D03*
X196400000Y-88962500D03*
%TD*%
D21*
%TO.C,SW3*%
X270204000Y-114500000D03*
X276704000Y-114500000D03*
X270204000Y-119000000D03*
X276704000Y-119000000D03*
%TD*%
D14*
%TO.C,C44*%
X263912000Y-167018500D03*
X263912000Y-168743500D03*
%TD*%
%TO.C,R59*%
X169800000Y-131737500D03*
X169800000Y-133462500D03*
%TD*%
D13*
%TO.C,R7*%
X117877500Y-171500000D03*
X119602500Y-171500000D03*
%TD*%
D23*
%TO.C,R32*%
X165360000Y-181087500D03*
X165360000Y-182912500D03*
%TD*%
D10*
%TO.C,C14*%
X156750000Y-152908000D03*
X155025000Y-152908000D03*
%TD*%
D71*
%TO.C,U1*%
X179500000Y-118950000D03*
X179500000Y-135550000D03*
D72*
X179500000Y-139750000D03*
X222500000Y-114750000D03*
D71*
X222500000Y-118950000D03*
X222500000Y-140550000D03*
D73*
X179200000Y-120000000D03*
X182800000Y-120000000D03*
X179200000Y-120500000D03*
X182800000Y-120500000D03*
X179200000Y-121000000D03*
X182800000Y-121000000D03*
X179200000Y-121500000D03*
X182800000Y-121500000D03*
X179200000Y-122000000D03*
X182800000Y-122000000D03*
X179200000Y-122500000D03*
X182800000Y-122500000D03*
X179200000Y-123000000D03*
X182800000Y-123000000D03*
X179200000Y-123500000D03*
X182800000Y-123500000D03*
X179200000Y-124000000D03*
X182800000Y-124000000D03*
X179200000Y-124500000D03*
X182800000Y-124500000D03*
X179200000Y-125000000D03*
X182800000Y-125000000D03*
X179200000Y-125500000D03*
X182800000Y-125500000D03*
X179200000Y-126000000D03*
X182800000Y-126000000D03*
X179200000Y-126500000D03*
X182800000Y-126500000D03*
X179200000Y-127000000D03*
X182800000Y-127000000D03*
X179200000Y-127500000D03*
X182800000Y-127500000D03*
X179200000Y-128000000D03*
X182800000Y-128000000D03*
X179200000Y-128500000D03*
X182800000Y-128500000D03*
X179200000Y-129000000D03*
X182800000Y-129000000D03*
X179200000Y-129500000D03*
X182800000Y-129500000D03*
X179200000Y-130000000D03*
X182800000Y-130000000D03*
X179200000Y-130500000D03*
X182800000Y-130500000D03*
X179200000Y-131000000D03*
X182800000Y-131000000D03*
X179200000Y-131500000D03*
X182800000Y-131500000D03*
X179200000Y-132000000D03*
X182800000Y-132000000D03*
X179200000Y-132500000D03*
X182800000Y-132500000D03*
X179200000Y-133000000D03*
X182800000Y-133000000D03*
X179200000Y-133500000D03*
X182800000Y-133500000D03*
X179200000Y-134000000D03*
X182800000Y-134000000D03*
X179200000Y-134500000D03*
X182800000Y-134500000D03*
X219200000Y-120000000D03*
X222800000Y-120000000D03*
X219200000Y-120500000D03*
X222800000Y-120500000D03*
X219200000Y-121000000D03*
X222800000Y-121000000D03*
X219200000Y-121500000D03*
X222800000Y-121500000D03*
X219200000Y-122000000D03*
X222800000Y-122000000D03*
X219200000Y-122500000D03*
X222800000Y-122500000D03*
X219200000Y-123000000D03*
X222800000Y-123000000D03*
X219200000Y-123500000D03*
X222800000Y-123500000D03*
X219200000Y-124000000D03*
X222800000Y-124000000D03*
X219200000Y-124500000D03*
X222800000Y-124500000D03*
X219200000Y-125000000D03*
X222800000Y-125000000D03*
X219200000Y-125500000D03*
X222800000Y-125500000D03*
X219200000Y-126000000D03*
X222800000Y-126000000D03*
X219200000Y-126500000D03*
X222800000Y-126500000D03*
X219200000Y-127000000D03*
X222800000Y-127000000D03*
X219200000Y-127500000D03*
X222800000Y-127500000D03*
X219200000Y-128000000D03*
X222800000Y-128000000D03*
X219200000Y-128500000D03*
X222800000Y-128500000D03*
X219200000Y-129000000D03*
X222800000Y-129000000D03*
X219200000Y-129500000D03*
X222800000Y-129500000D03*
X219200000Y-130000000D03*
X222800000Y-130000000D03*
X219200000Y-130500000D03*
X222800000Y-130500000D03*
X219200000Y-131000000D03*
X222800000Y-131000000D03*
X219200000Y-131500000D03*
X222800000Y-131500000D03*
X219200000Y-132000000D03*
X222800000Y-132000000D03*
X219200000Y-132500000D03*
X222800000Y-132500000D03*
X219200000Y-133000000D03*
X222800000Y-133000000D03*
X219200000Y-133500000D03*
X222800000Y-133500000D03*
X219200000Y-134000000D03*
X222800000Y-134000000D03*
X219200000Y-134500000D03*
X222800000Y-134500000D03*
X219200000Y-135000000D03*
X222800000Y-135000000D03*
X219200000Y-135500000D03*
X222800000Y-135500000D03*
X219200000Y-136000000D03*
X222800000Y-136000000D03*
X219200000Y-136500000D03*
X222800000Y-136500000D03*
X219200000Y-137000000D03*
X222800000Y-137000000D03*
X219200000Y-137500000D03*
X222800000Y-137500000D03*
X219200000Y-138000000D03*
X222800000Y-138000000D03*
X219200000Y-138500000D03*
X222800000Y-138500000D03*
X219200000Y-139000000D03*
X222800000Y-139000000D03*
X219200000Y-139500000D03*
X222800000Y-139500000D03*
%TD*%
D12*
%TO.C,R18*%
X160459500Y-156360500D03*
X160459500Y-154535500D03*
%TD*%
D13*
%TO.C,C13*%
X146389000Y-152654000D03*
X148114000Y-152654000D03*
%TD*%
D37*
%TO.C,LS1*%
X238800000Y-80550000D03*
D38*
X240800000Y-80550000D03*
%TD*%
D28*
%TO.C,C67*%
X273634500Y-111924000D03*
X275709500Y-111924000D03*
%TD*%
D31*
%TO.C,R91*%
X223358500Y-183460000D03*
X221533500Y-183460000D03*
%TD*%
D15*
%TO.C,C35*%
X169900000Y-192762500D03*
X169900000Y-194837500D03*
%TD*%
D26*
%TO.C,C62*%
X211400000Y-101262500D03*
X211400000Y-99537500D03*
%TD*%
D14*
%TO.C,C49*%
X280168000Y-169363500D03*
X280168000Y-171088500D03*
%TD*%
D74*
%TO.C,F2*%
X122501500Y-184312000D03*
X118226500Y-184312000D03*
%TD*%
D23*
%TO.C,R35*%
X160360000Y-181087500D03*
X160360000Y-182912500D03*
%TD*%
D12*
%TO.C,R82*%
X268068000Y-113852500D03*
X268068000Y-112027500D03*
%TD*%
D23*
%TO.C,R3*%
X166666000Y-140351000D03*
X166666000Y-142176000D03*
%TD*%
D75*
%TO.C,IC1*%
X164616000Y-141913500D03*
X164616000Y-141263500D03*
X164616000Y-140613500D03*
X162716000Y-140613500D03*
X162716000Y-141913500D03*
%TD*%
D13*
%TO.C,C51*%
X164337500Y-136800000D03*
X166062500Y-136800000D03*
%TD*%
D76*
%TO.C,D16*%
X235400000Y-187650000D03*
X235400000Y-184350000D03*
%TD*%
D17*
%TO.C,TP8*%
X183000000Y-158600000D03*
%TD*%
D28*
%TO.C,R61*%
X226962500Y-141400000D03*
X229037500Y-141400000D03*
%TD*%
D14*
%TO.C,C39*%
X267936000Y-166337500D03*
X267936000Y-168062500D03*
%TD*%
D10*
%TO.C,C37*%
X159862500Y-186600000D03*
X158137500Y-186600000D03*
%TD*%
D23*
%TO.C,R33*%
X167200000Y-181087500D03*
X167200000Y-182912500D03*
%TD*%
D18*
%TO.C,C41*%
X269457000Y-156082500D03*
X269457000Y-154007500D03*
%TD*%
D12*
%TO.C,R19*%
X142933500Y-156360500D03*
X142933500Y-154535500D03*
%TD*%
D77*
%TO.C,D13*%
X235600000Y-132680000D03*
X235600000Y-135980000D03*
%TD*%
D14*
%TO.C,R46*%
X273267000Y-154436500D03*
X273267000Y-156161500D03*
%TD*%
D31*
%TO.C,R85*%
X272320500Y-124460000D03*
X270495500Y-124460000D03*
%TD*%
D26*
%TO.C,C53*%
X201600000Y-91262500D03*
X201600000Y-89537500D03*
%TD*%
D28*
%TO.C,C71*%
X289336000Y-124678000D03*
X291411000Y-124678000D03*
%TD*%
D19*
%TO.C,TP5*%
X128000000Y-155000000D03*
%TD*%
D33*
%TO.C,R75*%
X184887500Y-133600000D03*
X186712500Y-133600000D03*
%TD*%
D10*
%TO.C,C47*%
X261862500Y-183622000D03*
X260137500Y-183622000D03*
%TD*%
D16*
%TO.C,R67*%
X241537500Y-144800000D03*
X239462500Y-144800000D03*
%TD*%
D17*
%TO.C,TP7*%
X177400000Y-158600000D03*
%TD*%
D31*
%TO.C,R5*%
X188605000Y-188443000D03*
X186780000Y-188443000D03*
%TD*%
D15*
%TO.C,C66*%
X151532000Y-115604000D03*
X151532000Y-117679000D03*
%TD*%
D78*
%TO.C,Q1*%
X142400000Y-188210000D03*
X144300000Y-188210000D03*
X143350000Y-184790000D03*
%TD*%
D79*
%TO.C,D12*%
X258960000Y-166924000D03*
X262260000Y-166924000D03*
%TD*%
D14*
%TO.C,C33*%
X218000000Y-168137500D03*
X218000000Y-169862500D03*
%TD*%
D19*
%TO.C,TP3*%
X202000000Y-65000000D03*
%TD*%
D80*
%TO.C,R30*%
X213800000Y-161200000D03*
X213800000Y-159200000D03*
%TD*%
D26*
%TO.C,C63*%
X209800000Y-101262500D03*
X209800000Y-99537500D03*
%TD*%
D14*
%TO.C,C73*%
X138718000Y-115671500D03*
X138718000Y-117396500D03*
%TD*%
D23*
%TO.C,R16*%
X158681500Y-154535500D03*
X158681500Y-156360500D03*
%TD*%
D21*
%TO.C,SW5*%
X270750000Y-127000000D03*
X277250000Y-127000000D03*
X270750000Y-131500000D03*
X277250000Y-131500000D03*
%TD*%
D13*
%TO.C,C8*%
X126827500Y-171450000D03*
X128552500Y-171450000D03*
%TD*%
D53*
%TO.C,R29*%
X179800000Y-171000000D03*
X177800000Y-171000000D03*
%TD*%
D10*
%TO.C,C46*%
X261862500Y-181590000D03*
X260137500Y-181590000D03*
%TD*%
D26*
%TO.C,C27*%
X209600000Y-163662500D03*
X209600000Y-161937500D03*
%TD*%
D21*
%TO.C,SW2*%
X162950000Y-134850000D03*
X162950000Y-128350000D03*
X167450000Y-134850000D03*
X167450000Y-128350000D03*
%TD*%
D31*
%TO.C,R87*%
X288280500Y-111674000D03*
X286455500Y-111674000D03*
%TD*%
D81*
%TO.C,D4*%
X148250000Y-184300000D03*
X148250000Y-186200000D03*
X150450000Y-185250000D03*
%TD*%
D82*
%TO.C,U3*%
X119740000Y-165400000D03*
X120240000Y-165400000D03*
X120740000Y-165400000D03*
X121240000Y-165400000D03*
X121740000Y-165400000D03*
X122240000Y-165400000D03*
D83*
X122940000Y-164700000D03*
X122940000Y-164200000D03*
X122940000Y-163700000D03*
X122940000Y-163200000D03*
D82*
X122240000Y-162500000D03*
X121740000Y-162500000D03*
X121240000Y-162500000D03*
X120740000Y-162500000D03*
X120240000Y-162500000D03*
X119740000Y-162500000D03*
D83*
X119040000Y-163200000D03*
X119040000Y-163700000D03*
X119040000Y-164200000D03*
X119040000Y-164700000D03*
D84*
X119990000Y-164400000D03*
X120990000Y-164400000D03*
X121990000Y-164400000D03*
X120480000Y-163500000D03*
X121500000Y-163500000D03*
%TD*%
D13*
%TO.C,R94*%
X282137500Y-162800000D03*
X283862500Y-162800000D03*
%TD*%
D85*
%TO.C,C5*%
X114375000Y-164000690D03*
X114375000Y-160875690D03*
%TD*%
D17*
%TO.C,TP4*%
X139750000Y-183750000D03*
%TD*%
D26*
%TO.C,C55*%
X200000000Y-91262500D03*
X200000000Y-89537500D03*
%TD*%
D23*
%TO.C,R17*%
X144711500Y-154535500D03*
X144711500Y-156360500D03*
%TD*%
D13*
%TO.C,C23*%
X156295000Y-161544000D03*
X158020000Y-161544000D03*
%TD*%
D28*
%TO.C,C70*%
X290140500Y-111674000D03*
X292215500Y-111674000D03*
%TD*%
D33*
%TO.C,R71*%
X190697500Y-100200000D03*
X192522500Y-100200000D03*
%TD*%
D26*
%TO.C,C52*%
X175800000Y-133462500D03*
X175800000Y-131737500D03*
%TD*%
%TO.C,C56*%
X198400000Y-91062500D03*
X198400000Y-89337500D03*
%TD*%
D86*
%TO.C,BUZZER1*%
X230546000Y-185266000D03*
X227046000Y-185266000D03*
D87*
X230546000Y-188766000D03*
%TD*%
D10*
%TO.C,C29*%
X191462500Y-164000000D03*
X189737500Y-164000000D03*
%TD*%
D23*
%TO.C,R13*%
X146350000Y-184250000D03*
X146350000Y-186075000D03*
%TD*%
D88*
%TO.C,J1*%
X140860000Y-194645000D03*
X146640000Y-194645000D03*
D89*
X140550000Y-193570000D03*
X141350000Y-193570000D03*
D90*
X142500000Y-193570000D03*
X143500000Y-193570000D03*
X144000000Y-193570000D03*
X145000000Y-193570000D03*
D89*
X146150000Y-193570000D03*
X146950000Y-193570000D03*
X146950000Y-193570000D03*
X146150000Y-193570000D03*
D90*
X145500000Y-193570000D03*
X144500000Y-193570000D03*
X143000000Y-193570000D03*
X142000000Y-193570000D03*
D89*
X141350000Y-193570000D03*
X140550000Y-193570000D03*
D91*
X139430000Y-194145000D03*
D92*
X139430000Y-198325000D03*
D91*
X148070000Y-194145000D03*
D92*
X148070000Y-198325000D03*
%TD*%
D12*
%TO.C,R86*%
X268360000Y-126388500D03*
X268360000Y-124563500D03*
%TD*%
D93*
%TO.C,J10*%
X187750000Y-166370000D03*
X188250000Y-166370000D03*
X188750000Y-166370000D03*
X189250000Y-166370000D03*
X189750000Y-166370000D03*
X190250000Y-166370000D03*
X190750000Y-166370000D03*
X191250000Y-166370000D03*
X191750000Y-166370000D03*
X192250000Y-166370000D03*
X192750000Y-166370000D03*
X193250000Y-166370000D03*
X193750000Y-166370000D03*
X194250000Y-166370000D03*
X194750000Y-166370000D03*
X195250000Y-166370000D03*
X195750000Y-166370000D03*
X196250000Y-166370000D03*
X196750000Y-166370000D03*
X197250000Y-166370000D03*
X197750000Y-166370000D03*
X198250000Y-166370000D03*
X198750000Y-166370000D03*
X199250000Y-166370000D03*
X199750000Y-166370000D03*
X200250000Y-166370000D03*
X200750000Y-166370000D03*
X201250000Y-166370000D03*
X201750000Y-166370000D03*
X202250000Y-166370000D03*
X202750000Y-166370000D03*
X203250000Y-166370000D03*
X203750000Y-166370000D03*
X204250000Y-166370000D03*
X204750000Y-166370000D03*
X205250000Y-166370000D03*
X205750000Y-166370000D03*
X206250000Y-166370000D03*
X206750000Y-166370000D03*
X207250000Y-166370000D03*
X207750000Y-166370000D03*
X208250000Y-166370000D03*
X208750000Y-166370000D03*
X209250000Y-166370000D03*
X209750000Y-166370000D03*
X210250000Y-166370000D03*
X210750000Y-166370000D03*
X211250000Y-166370000D03*
X211750000Y-166370000D03*
X212250000Y-166370000D03*
D94*
X185850000Y-169630000D03*
X214150000Y-169630000D03*
%TD*%
D95*
%TO.C,U7*%
X268910000Y-163091000D03*
X269410000Y-163091000D03*
X269910000Y-163091000D03*
X270410000Y-163091000D03*
X270910000Y-163091000D03*
X271410000Y-163091000D03*
D96*
X272110000Y-162391000D03*
X272110000Y-161891000D03*
X272110000Y-161391000D03*
X272110000Y-160891000D03*
X272110000Y-160391000D03*
X272110000Y-159891000D03*
D95*
X271410000Y-159191000D03*
X270910000Y-159191000D03*
X270410000Y-159191000D03*
X269910000Y-159191000D03*
X269410000Y-159191000D03*
X268910000Y-159191000D03*
D96*
X268210000Y-159891000D03*
X268210000Y-160391000D03*
X268210000Y-160891000D03*
X268210000Y-161391000D03*
X268210000Y-161891000D03*
X268210000Y-162391000D03*
D97*
X270160000Y-161141000D03*
%TD*%
D30*
%TO.C,R26*%
X177800000Y-173200000D03*
X179800000Y-173200000D03*
%TD*%
D19*
%TO.C,TP16*%
X174400000Y-195800000D03*
%TD*%
D17*
%TO.C,TP10*%
X176200000Y-176400000D03*
%TD*%
D28*
%TO.C,C64*%
X203762500Y-107400000D03*
X205837500Y-107400000D03*
%TD*%
D31*
%TO.C,R12*%
X119652500Y-169750000D03*
X117827500Y-169750000D03*
%TD*%
D28*
%TO.C,C11*%
X182509000Y-186111000D03*
X184584000Y-186111000D03*
%TD*%
D26*
%TO.C,R68*%
X164900000Y-125462500D03*
X164900000Y-123737500D03*
%TD*%
D13*
%TO.C,C18*%
X156295000Y-160020000D03*
X158020000Y-160020000D03*
%TD*%
%TO.C,C24*%
X156295000Y-158242000D03*
X158020000Y-158242000D03*
%TD*%
D55*
%TO.C,H4*%
X291797056Y-196500000D03*
X292500000Y-194802944D03*
X292500000Y-198197056D03*
X294197056Y-194100000D03*
D56*
X294197056Y-196500000D03*
D55*
X294197056Y-198900000D03*
X295894112Y-194802944D03*
X295894112Y-198197056D03*
X296597056Y-196500000D03*
%TD*%
D26*
%TO.C,R39*%
X275200000Y-175562500D03*
X275200000Y-173837500D03*
%TD*%
D30*
%TO.C,R25*%
X177800000Y-166600000D03*
X179800000Y-166600000D03*
%TD*%
D23*
%TO.C,R34*%
X162360000Y-181087500D03*
X162360000Y-182912500D03*
%TD*%
D10*
%TO.C,C60*%
X202062500Y-108940000D03*
X200337500Y-108940000D03*
%TD*%
D13*
%TO.C,C1*%
X160441000Y-147287500D03*
X162166000Y-147287500D03*
%TD*%
D31*
%TO.C,R92*%
X223104500Y-189048000D03*
X221279500Y-189048000D03*
%TD*%
D15*
%TO.C,C12*%
X114490000Y-165962500D03*
X114490000Y-168037500D03*
%TD*%
D98*
%TO.C,D14*%
X159050000Y-132600000D03*
X160950000Y-132600000D03*
X160000000Y-130400000D03*
%TD*%
D99*
%TO.C,J5*%
X265530000Y-190360000D03*
X276970000Y-190360000D03*
D100*
X266800000Y-184010000D03*
D101*
X268070000Y-181470000D03*
X269340000Y-184010000D03*
X270610000Y-181470000D03*
X271880000Y-184010000D03*
X273150000Y-181470000D03*
X274420000Y-184010000D03*
X275690000Y-181470000D03*
D21*
X264620000Y-195250000D03*
X267160000Y-195250000D03*
X275340000Y-195250000D03*
X277880000Y-195250000D03*
D102*
X263510000Y-187310000D03*
X278990000Y-187310000D03*
%TD*%
D28*
%TO.C,R70*%
X156962500Y-123600000D03*
X159037500Y-123600000D03*
%TD*%
D103*
%TO.C,C32*%
X162712500Y-167640000D03*
X167787500Y-167640000D03*
%TD*%
D21*
%TO.C,SW6*%
X286150000Y-114250000D03*
X292650000Y-114250000D03*
X286150000Y-118750000D03*
X292650000Y-118750000D03*
%TD*%
D55*
%TO.C,H3*%
X103600000Y-67000000D03*
X104302944Y-65302944D03*
X104302944Y-68697056D03*
X106000000Y-64600000D03*
D56*
X106000000Y-67000000D03*
D55*
X106000000Y-69400000D03*
X107697056Y-65302944D03*
X107697056Y-68697056D03*
X108400000Y-67000000D03*
%TD*%
D31*
%TO.C,R83*%
X256178500Y-111592000D03*
X254353500Y-111592000D03*
%TD*%
D43*
%TO.C,U8*%
X145500000Y-117072500D03*
X146000000Y-117072500D03*
X146500000Y-117072500D03*
X147000000Y-117072500D03*
D44*
X147687500Y-116385000D03*
X147687500Y-115885000D03*
X147687500Y-115385000D03*
X147687500Y-114885000D03*
D43*
X147000000Y-114197500D03*
X146500000Y-114197500D03*
X146000000Y-114197500D03*
X145500000Y-114197500D03*
D44*
X144812500Y-114885000D03*
X144812500Y-115385000D03*
X144812500Y-115885000D03*
X144812500Y-116385000D03*
D45*
X146250000Y-115635000D03*
%TD*%
D14*
%TO.C,C34*%
X216222000Y-168137500D03*
X216222000Y-169862500D03*
%TD*%
D104*
%TO.C,J6*%
X228000000Y-134800000D03*
D36*
X228000000Y-133530000D03*
X229270000Y-134800000D03*
X229270000Y-133530000D03*
X230540000Y-134800000D03*
X230540000Y-133530000D03*
X231810000Y-134800000D03*
X231810000Y-133530000D03*
X233080000Y-134800000D03*
X233080000Y-133530000D03*
%TD*%
D17*
%TO.C,TP9*%
X187000000Y-161200000D03*
%TD*%
D88*
%TO.C,J4*%
X242860000Y-194645000D03*
X248640000Y-194645000D03*
D89*
X242550000Y-193570000D03*
X243350000Y-193570000D03*
D90*
X244500000Y-193570000D03*
X245500000Y-193570000D03*
X246000000Y-193570000D03*
X247000000Y-193570000D03*
D89*
X248150000Y-193570000D03*
X248950000Y-193570000D03*
X248950000Y-193570000D03*
X248150000Y-193570000D03*
D90*
X247500000Y-193570000D03*
X246500000Y-193570000D03*
X245000000Y-193570000D03*
X244000000Y-193570000D03*
D89*
X243350000Y-193570000D03*
X242550000Y-193570000D03*
D91*
X241430000Y-194145000D03*
D92*
X241430000Y-198325000D03*
D91*
X250070000Y-194145000D03*
D92*
X250070000Y-198325000D03*
%TD*%
D26*
%TO.C,R40*%
X273100000Y-175567500D03*
X273100000Y-173842500D03*
%TD*%
D14*
%TO.C,R50*%
X282100000Y-195205500D03*
X282100000Y-196930500D03*
%TD*%
D11*
%TO.C,Q3*%
X221708000Y-185304000D03*
X221708000Y-187204000D03*
X224708000Y-186254000D03*
%TD*%
D23*
%TO.C,R1*%
X168402000Y-140375000D03*
X168402000Y-142200000D03*
%TD*%
D33*
%TO.C,R77*%
X209887500Y-103222000D03*
X211712500Y-103222000D03*
%TD*%
D105*
%TO.C,U5*%
X166070000Y-186750000D03*
X166070000Y-185800000D03*
X166070000Y-184850000D03*
X162650000Y-184850000D03*
X162650000Y-186750000D03*
%TD*%
M02*
